<?xml version="1.0" encoding="UTF-8"?>
<svg version="1.1" xmlns="http://www.w3.org/2000/svg" width="926" height="228">
<path d="M0 0 C3.0625 1.9375 3.0625 1.9375 5 5 C5.69056879 8.15607058 5.90641796 10.88618773 5 14 C1.31903912 18.56410888 -2.90601658 20.66100787 -8.0625 23.125 C-16.35933063 27.31392458 -22.64607657 32.26040596 -29 39 C-29.73605469 39.76699219 -30.47210938 40.53398438 -31.23046875 41.32421875 C-44.38977287 56.31615323 -49.37671507 76.20072644 -48.20263672 95.77148438 C-46.38502521 115.76083116 -35.85398627 133.85806977 -20.8125 146.8359375 C-3.85358883 159.88487749 16.99163996 165.27801564 38.23681641 162.73193359 C53.60070978 160.27384972 67.52417514 153.4946205 79 143 C79.94746094 142.17242187 79.94746094 142.17242187 80.9140625 141.328125 C93.9063564 129.30882227 101.30014079 110.8644114 102.31640625 93.453125 C103.0622694 72.74010387 97.03859383 54.52917812 83 39 C82.37351563 38.29230469 81.74703125 37.58460937 81.1015625 36.85546875 C73.38656847 28.62089348 63.60827888 23.64487914 53.65234375 18.578125 C51 17 51 17 49 14 C48.17581582 9.36721733 48.40445045 5.97273093 50.875 1.9375 C54.51622471 -0.32005932 56.61077999 -0.95843335 60.859375 -0.7421875 C71.98733665 1.88755468 82.72992613 9.34788077 91 17 C91.5048291 17.45858398 92.0096582 17.91716797 92.52978516 18.38964844 C111.32442184 35.61760078 121.67700802 57.49637446 123.875 82.9375 C124.93314043 109.78781336 116.32744173 133.98862642 98.28515625 154.0625 C82.52279306 170.96667406 59.7728349 182.99176381 36.43969727 184.12426758 C9.10310026 184.8817284 -16.67823357 179.52345151 -37.375 160.5625 C-39.28635614 158.74002948 -41.14244456 156.87896819 -43 155 C-43.81210937 154.19820312 -44.62421875 153.39640625 -45.4609375 152.5703125 C-54.53013833 143.12967682 -60.69157888 131.29663251 -65 119 C-65.39316406 117.90429688 -65.78632812 116.80859375 -66.19140625 115.6796875 C-73.33326091 92.23847814 -70.15182149 65.60826382 -59 44 C-54.25020396 35.81589054 -48.52143892 28.82260662 -42 22 C-41.38769531 21.31292969 -40.77539062 20.62585938 -40.14453125 19.91796875 C-31.56239383 10.64047692 -13.4494094 -3.26127963 0 0 Z " fill="#C03F31" transform="translate(69,37)"/>
<path d="M0 0 C2.51799825 1.91501863 4.62808906 4.00618627 6.76171875 6.33984375 C7.09171875 2.70984375 7.42171875 -0.92015625 7.76171875 -4.66015625 C13.37171875 -4.66015625 18.98171875 -4.66015625 24.76171875 -4.66015625 C24.85476779 9.66644259 24.92566022 23.99296846 24.96896744 38.31980896 C24.98976219 44.97374701 25.0179305 51.62742131 25.06347656 58.28125 C25.10722469 64.71332825 25.13091676 71.14520744 25.14122772 77.5774231 C25.14856735 80.02038706 25.16289855 82.46334123 25.18463898 84.90621948 C25.49063215 120.74390595 25.49063215 120.74390595 13.76171875 133.33984375 C4.83336392 142.03679414 -6.32463397 145.04146292 -18.48632812 144.97460938 C-19.196521 144.96212158 -19.90671387 144.94963379 -20.63842773 144.93676758 C-22.80258862 144.90231498 -24.96267439 144.91620766 -27.12695312 144.93554688 C-38.82422701 144.92367843 -49.62582092 142.85443521 -58.23828125 134.33984375 C-64.11427682 126.9798595 -65.54944166 119.5665309 -65.23828125 110.33984375 C-62.4451752 110.62094864 -59.6542925 110.91420427 -56.86328125 111.21484375 C-56.06921875 111.29347656 -55.27515625 111.37210937 -54.45703125 111.453125 C-48.46484375 112.11328125 -48.46484375 112.11328125 -46.23828125 114.33984375 C-45.86703125 115.59796875 -45.49578125 116.85609375 -45.11328125 118.15234375 C-43.55380278 122.5735456 -41.17901866 124.19303023 -37.17578125 126.4296875 C-29.47014726 130.04947121 -18.39478322 129.43866188 -10.1953125 127.69140625 C-4.17274284 125.265793 -0.2788122 121.08081715 2.79296875 115.44921875 C5.80235988 108.14865879 5.01809257 100.07853499 4.76171875 92.33984375 C4.30023437 92.7265625 3.83875 93.11328125 3.36328125 93.51171875 C-7.99072619 102.5769737 -19.05216331 103.75088558 -33.23828125 102.33984375 C-44.17728029 100.13968349 -52.82161028 93.30209546 -59.23828125 84.33984375 C-69.20542497 67.6109523 -71.11094445 49.22623077 -67.23828125 30.33984375 C-64.98020759 22.73629388 -61.8913809 15.77119805 -57.23828125 9.33984375 C-56.53703125 8.32921875 -55.83578125 7.31859375 -55.11328125 6.27734375 C-41.50259156 -9.28988258 -16.73109003 -11.16537245 0 0 Z M-42.23828125 19.33984375 C-50.76666213 32.59661807 -51.36513894 49.88773844 -48.17578125 65.02734375 C-45.73071974 73.02520851 -41.00314961 80.36486218 -33.5390625 84.4375 C-25.98912753 87.39851015 -18.8458456 88.17656266 -11.23828125 85.33984375 C-4.00857871 82.0420847 0.71133622 77.01639173 4.57421875 70.08984375 C9.37487422 54.9298791 9.83778017 37.22231889 2.44140625 22.7578125 C-1.95857258 16.47041106 -8.61323345 10.86485331 -16.23828125 9.33984375 C-27.01670195 8.3384702 -35.02455856 11.09117583 -42.23828125 19.33984375 Z " fill="#BF3A2D" transform="translate(569.23828125,83.66015625)"/>
<path d="M0 0 C2.53515625 0.42578125 2.53515625 0.42578125 5.16015625 2.17578125 C7.76914086 6.4450288 7.65757322 10.36194413 7.64868164 15.30566406 C7.64882767 15.98899811 7.64897369 16.67233215 7.64912415 17.37637329 C7.6484294 19.62725029 7.64065757 21.87804377 7.6328125 24.12890625 C7.63094676 25.69260615 7.62952359 27.25630663 7.62852478 28.82000732 C7.62471187 32.92994814 7.61489205 37.03985346 7.6038208 41.14978027 C7.59358032 45.34594238 7.58902151 49.54211024 7.58398438 53.73828125 C7.57326867 61.96746418 7.55620698 70.1966183 7.53515625 78.42578125 C8.47302979 78.56749756 9.41090332 78.70921387 10.37719727 78.85522461 C17.92753076 80.21936295 24.25394272 85.2972148 29.00390625 91.15625 C38.03319571 104.53894688 38.53515625 118.75831731 38.53515625 134.42578125 C14.77515625 134.42578125 -8.98484375 134.42578125 -33.46484375 134.42578125 C-30.9249664 151.03312274 -30.9249664 151.03312274 -20.5625 163.0234375 C-11.43198729 169.12744879 -1.06033957 168.9970144 9.4296875 167.15234375 C17.11882011 165.35337688 23.73095771 161.3138947 30.53515625 157.42578125 C30.53515625 163.03578125 30.53515625 168.64578125 30.53515625 174.42578125 C15.21353703 182.83398692 -2.32407599 186.53413039 -19.58984375 182.17578125 C-21.22951697 181.63506459 -22.85698598 181.0548251 -24.46484375 180.42578125 C-25.17769531 180.14734375 -25.89054687 179.86890625 -26.625 179.58203125 C-37.0328576 174.92957852 -43.34395318 166.85409906 -47.6875 156.515625 C-53.67931932 140.55891621 -54.08790443 120.34800724 -47.24609375 104.625 C-41.69509447 93.47674312 -33.22765066 83.8237606 -21.22753906 79.64707947 C-20.42413086 79.38318924 -19.62072266 79.11929901 -18.79296875 78.84741211 C-17.9824707 78.58028915 -17.17197266 78.3131662 -16.33691406 78.03794861 C-15.71913086 77.83593338 -15.10134766 77.63391815 -14.46484375 77.42578125 C-14.46341873 76.53486282 -14.46199371 75.6439444 -14.46052551 74.72602844 C-14.44268611 66.32440577 -14.40104491 57.92330935 -14.33275318 49.52193928 C-14.29848158 45.20278816 -14.273373 40.88399079 -14.26928711 36.56469727 C-14.26500442 32.39520646 -14.23654524 28.22651368 -14.19141197 24.05727196 C-14.17843583 22.46774127 -14.17412974 20.87811509 -14.17868996 19.28853798 C-14.18359567 17.05907977 -14.15751138 14.83195434 -14.12426758 12.6027832 C-14.11760574 11.334814 -14.11094391 10.06684479 -14.1040802 8.76045227 C-12.56276222 0.71994016 -7.13901327 -0.33629268 0 0 Z M-25.98828125 101.36328125 C-30.06126536 107.08532722 -33.46484375 113.25666799 -33.46484375 120.42578125 C-15.64484375 120.42578125 2.17515625 120.42578125 20.53515625 120.42578125 C19.51943956 110.26861433 18.5838827 102.11893272 10.53515625 95.42578125 C-1.51835418 88.36854457 -17.07671427 90.02959606 -25.98828125 101.36328125 Z " fill="#C04033" transform="translate(101.46484375,-0.42578125)"/>
<path d="M0 0 C10.18141511 8.93016376 14.83841844 20.91042277 17 34 C17 39.61 17 45.22 17 51 C-8.74 51.33 -34.48 51.66 -61 52 C-57.50616464 69.09040288 -57.50616464 69.09040288 -46 81 C-38.24234273 85.21249131 -30.02290844 86.78321761 -21.4140625 84.234375 C-14.10037274 81.17283045 -9.82559543 77.38352046 -6.1875 70.25 C-5.28064453 68.49429688 -5.28064453 68.49429688 -4.35546875 66.703125 C-3.90816406 65.81109375 -3.46085938 64.9190625 -3 64 C0.14735717 64.27654417 3.29241854 64.5737556 6.4375 64.875 C7.33533203 64.95363281 8.23316406 65.03226562 9.15820312 65.11328125 C10.43920898 65.23896484 10.43920898 65.23896484 11.74609375 65.3671875 C12.53685303 65.44050293 13.3276123 65.51381836 14.14233398 65.58935547 C14.75536377 65.72486816 15.36839355 65.86038086 16 66 C17 68 17 68 16.21484375 70.5390625 C10.74476133 83.75424632 3.31889861 93.36690829 -10.15234375 99 C-24.21573313 103.93858393 -40.2213685 103.36178084 -54.01171875 97.78125 C-66.14673068 91.68835698 -73.09352434 82.44569435 -78 70 C-83.6884267 52.67155425 -82.52707578 32.08589641 -75.28125 15.37109375 C-68.60937891 3.02406403 -58.17537391 -4.69711135 -45 -9 C-28.87745501 -12.4101233 -13.32595452 -9.68302361 0 0 Z M-53.5 15.25 C-58.08888959 21.37304498 -60 27.40551241 -60 35 C-41.19 35 -22.38 35 -3 35 C-4.07582271 25.31759563 -5.62932091 18.77905526 -12.8125 12.0625 C-19.63670866 6.68431325 -25.93120306 5.30159578 -34.61328125 5.5234375 C-41.83820362 6.54009324 -48.46559925 9.93801324 -53.5 15.25 Z " fill="#C14235" transform="translate(803,87)"/>
<path d="M0 0 C11.28310293 9.01905925 16.12992796 20.92061375 18.58984375 34.72265625 C19.13972094 40.45708978 19 46.23926282 19 52 C-7.07 52 -33.14 52 -60 52 C-55.60987109 70.58689324 -55.60987109 70.58689324 -43 83 C-35.91362399 86.66671199 -28.08281514 87.1278436 -20.359375 85.4140625 C-10.0425667 81.96457752 -5.6910954 74.3821908 -1 65 C4.94 65.66 10.88 66.32 17 67 C18.17951004 71.71804017 17.13241481 73.67580772 15 77.75 C14.67749268 78.37326172 14.35498535 78.99652344 14.02270508 79.63867188 C8.36317024 90.22774558 0.70911149 96.7741777 -10.6875 100.8125 C-24.8533246 105.00065684 -40.85791602 103.9774487 -54.3125 97.8125 C-66.20771892 91.2213787 -73.48912698 81.05408381 -77.4921875 68.1328125 C-81.89179001 49.65448195 -80.50847169 28.55634644 -71.01953125 12.015625 C-63.54333414 0.85194188 -53.26151409 -5.95903587 -40.171875 -8.5625 C-25.6702578 -10.56272306 -11.88931905 -8.87787968 0 0 Z M-53 18 C-57.03743738 24.14131294 -58.06251788 28.50014308 -59 36 C-39.86 36 -20.72 36 -1 36 C-3.23106206 23.72915869 -4.91199482 17.02258924 -15 10 C-27.89636167 2.27861149 -43.67596355 7.33525242 -53 18 Z " fill="#C03E31" transform="translate(691,86)"/>
<path d="M0 0 C6.96840931 6.81355577 11.12957777 14.4339233 13.8125 23.75 C14.03808594 24.52730469 14.26367188 25.30460937 14.49609375 26.10546875 C16.45831592 34.18441108 15.8125 41.03752517 15.8125 49.75 C-10.2575 49.75 -36.3275 49.75 -63.1875 49.75 C-58.7140817 68.27264499 -58.7140817 68.27264499 -46.1875 80.75 C-38.5530155 84.80454861 -29.57440367 84.97408931 -21.375 82.5625 C-11.61369684 78.7307984 -8.71273567 71.70996663 -4.1875 62.75 C2.0825 63.41 8.3525 64.07 14.8125 64.75 C13.21450552 75.93596136 8.44669365 84.33328977 -0.1875 91.75 C-14.14732405 100.66648738 -29.07829443 102.6234489 -45.3125 99.625 C-57.93195602 96.58905548 -67.86267289 89.8608126 -75.0390625 78.9296875 C-83.86057545 62.6337892 -84.76927444 41.68853891 -80.21875 23.88671875 C-75.96972327 10.96259577 -68.66982714 0.55105629 -56.60546875 -6.0703125 C-37.04597954 -15.61306814 -17.23322722 -12.16463098 0 0 Z M-48.1875 8.75 C-49.12529297 9.33394531 -49.12529297 9.33394531 -50.08203125 9.9296875 C-55.76375195 14.11361254 -58.74627237 20.25371306 -61.1875 26.75 C-61.5175 29.06 -61.8475 31.37 -62.1875 33.75 C-43.0475 33.75 -23.9075 33.75 -4.1875 33.75 C-5.26332271 24.06759563 -6.81682091 17.52905526 -14 10.8125 C-23.97570929 2.95060271 -37.26168581 1.92404929 -48.1875 8.75 Z " fill="#C14234" transform="translate(408.1875,88.25)"/>
<path d="M0 0 C5.94 0 11.88 0 18 0 C18.33 26.73 18.66 53.46 19 81 C31.48333277 67.57181103 31.48333277 67.57181103 43.82421875 54.01367188 C51.74561402 45.5919655 58.03291313 39.01684533 70.08911133 38.6036377 C74.78349124 38.76809272 79.37305839 39.18812224 84 40 C84 40.66 84 41.32 84 42 C82.51586914 43.46412659 82.51586914 43.46412659 80.47265625 45.15844727 C76.25727149 48.74496303 72.33359125 52.53717439 68.4375 56.46484375 C67.42236328 57.48210289 67.42236328 57.48210289 66.38671875 58.51991272 C64.25542325 60.65674305 62.12765782 62.79704823 60 64.9375 C58.54320221 66.39932123 57.08617299 67.86091187 55.62890625 69.32226562 C52.08326027 72.878854 48.54077261 76.43856016 45 80 C48.48935772 86.55477824 52.37203002 92.72893777 56.55078125 98.86328125 C57.16841843 99.77651657 57.7860556 100.68975189 58.42240906 101.63066101 C60.38228992 104.52698452 62.34722721 107.41983314 64.3125 110.3125 C65.61949222 112.24129826 66.92613577 114.17033283 68.23242188 116.09960938 C68.86800018 117.0380368 69.50357849 117.97646423 70.15841675 118.94332886 C71.4089436 120.79031078 72.65905298 122.63757545 73.90872192 124.48513794 C76.49397015 128.3063558 79.08175751 132.12510575 81.70068359 135.92333984 C82.4323877 136.99406738 83.1640918 138.06479492 83.91796875 139.16796875 C84.52793701 140.05121826 85.13790527 140.93446777 85.76635742 141.84448242 C87 144 87 144 87 147 C79.38207404 148.62712009 71.45416533 149.76239702 64 147 C57.44283204 141.29612632 53.72433171 132.98618587 49.79785156 125.37451172 C47.09775321 120.30651072 43.94314954 115.57912492 40.75 110.8125 C39.72201201 109.23694527 38.69583735 107.66020523 37.671875 106.08203125 C36.02774767 103.55479592 34.35111402 101.05682431 32.640625 98.57421875 C31 96 31 96 31 94 C29.74839762 95.08148167 28.49879619 96.16527922 27.25 97.25 C26.55390625 97.85328125 25.8578125 98.4565625 25.140625 99.078125 C24.43421875 99.71234375 23.7278125 100.3465625 23 101 C21.96262695 101.75313477 21.96262695 101.75313477 20.90429688 102.52148438 C17.99550923 106.30738337 18.39699158 109.92457555 18.390625 114.578125 C18.37408875 115.5046991 18.35755249 116.43127319 18.34051514 117.38592529 C18.29199274 120.340684 18.27065476 123.29492789 18.25 126.25 C18.22184387 128.25523429 18.19191695 130.26044456 18.16015625 132.265625 C18.08623255 137.17704096 18.03668376 142.08817041 18 147 C12.06 147 6.12 147 0 147 C0 98.49 0 49.98 0 0 Z " fill="#C03C2F" transform="translate(839,39)"/>
<path d="M0 0 C6.90073139 5.7919458 10.35915005 13.577056 11.5625 22.375 C11.8359335 28.50245722 11.79572738 34.62167884 11.7578125 40.75390625 C11.75407697 42.53466126 11.75123255 44.31541834 11.74923706 46.09617615 C11.74164307 50.75682363 11.72203147 55.41734417 11.6998291 60.07794189 C11.67927892 64.84426151 11.67021582 69.61060187 11.66015625 74.37695312 C11.63878114 83.70969983 11.60363404 93.04231944 11.5625 102.375 C5.2925 102.375 -0.9775 102.375 -7.4375 102.375 C-7.45208252 100.15015869 -7.46666504 97.92531738 -7.48168945 95.63305664 C-7.53217577 88.25688437 -7.59879515 80.88092009 -7.67321491 73.50495243 C-7.71781647 69.0357909 -7.75709471 64.56671839 -7.78393555 60.09741211 C-7.81007095 55.77893703 -7.85054463 51.46080639 -7.90068626 47.1425457 C-7.91728608 45.50049585 -7.92884302 43.85838651 -7.93511391 42.21626472 C-7.4683074 28.7125689 -7.4683074 28.7125689 -12.78266907 16.80995178 C-18.75989774 11.44762189 -24.50093238 10.9857674 -32.2109375 11.125 C-39.26499029 11.67156099 -44.44556699 14.26961397 -49.4375 19.375 C-56.79294575 29.34356463 -55.74375284 44.30705079 -55.8515625 56.0859375 C-55.87034032 57.43357438 -55.88991822 58.78120033 -55.9102478 60.1288147 C-55.96087859 63.62367199 -56.00086651 67.11856714 -56.03839111 70.61358643 C-56.07887207 74.20081399 -56.12975962 77.78789369 -56.1796875 81.375 C-56.27562529 88.37489631 -56.35931832 95.37487951 -56.4375 102.375 C-62.7075 102.375 -68.9775 102.375 -75.4375 102.375 C-75.46062041 88.57159053 -75.47841354 74.76818563 -75.48931217 60.96476078 C-75.49454166 54.55600872 -75.5016405 48.14726985 -75.51293945 41.73852539 C-75.52376599 35.55940559 -75.52977634 29.38029852 -75.53237724 23.20116997 C-75.53423192 20.8379439 -75.53785332 18.47471856 -75.54323006 16.11149788 C-75.55043738 12.81398104 -75.55149107 9.51651753 -75.55102539 6.21899414 C-75.55462067 5.23141113 -75.55821594 4.24382812 -75.56192017 3.22631836 C-75.5605455 2.33304337 -75.55917084 1.43976837 -75.55775452 0.51942444 C-75.55867631 -0.26133422 -75.5595981 -1.04209288 -75.56054783 -1.84651089 C-75.4375 -3.625 -75.4375 -3.625 -74.4375 -4.625 C-71.57482433 -4.69825168 -68.736781 -4.71738205 -65.875 -4.6875 C-65.06869141 -4.68298828 -64.26238281 -4.67847656 -63.43164062 -4.67382812 C-61.43356244 -4.66200518 -59.43552217 -4.64406914 -57.4375 -4.625 C-57.1075 -0.665 -56.7775 3.295 -56.4375 7.375 C-55.98375 6.67375 -55.53 5.9725 -55.0625 5.25 C-41.5222035 -9.57984855 -16.33618507 -10.91145568 0 0 Z " fill="#C13F32" transform="translate(296.4375,83.625)"/>
<path d="M0 0 C-0.58652352 4.48993869 -1.7643538 8.22543184 -3.5625 12.375 C-4.01753906 13.43460938 -4.47257812 14.49421875 -4.94140625 15.5859375 C-5.29074219 16.38257812 -5.64007813 17.17921875 -6 18 C-8.76276177 17.47731534 -11.3260876 16.89130413 -14 16 C-20.85724405 15.26872048 -25.46601149 15.79416873 -31 20 C-39.28918866 28.74969914 -38.45999554 44.09203468 -38.51171875 55.3671875 C-38.52862084 56.78208921 -38.54677819 58.19697641 -38.56611633 59.61184692 C-38.61302398 63.2842759 -38.64321202 66.95664613 -38.66955566 70.62927246 C-38.69966542 74.3974977 -38.74608858 78.1655212 -38.79101562 81.93359375 C-38.87637207 89.28897805 -38.94249912 96.64433552 -39 104 C-45.27 104 -51.54 104 -58 104 C-58 68.69 -58 33.38 -58 -3 C-52.39 -3 -46.78 -3 -41 -3 C-40.67 1.29 -40.34 5.58 -40 10 C-39.113125 8.5975 -38.22625 7.195 -37.3125 5.75 C-27.87902512 -8.32288875 -13.8382239 -6.91911195 0 0 Z " fill="#BF3A2C" transform="translate(500,82)"/>
<path d="M0 0 C2.79310605 0.28110489 5.58398875 0.57436052 8.375 0.875 C9.1690625 0.95363281 9.963125 1.03226563 10.78125 1.11328125 C16.7734375 1.7734375 16.7734375 1.7734375 19 4 C19.37125 5.258125 19.7425 6.51625 20.125 7.8125 C21.68447847 12.23370185 24.05926259 13.85318648 28.0625 16.08984375 C35.71328359 19.68386104 46.92976795 19.19759011 55.04296875 17.28125 C59.65625217 15.31206878 63.33215911 12.38569929 67 9 C66.67 10.65 66.34 12.3 66 14 C65.01 14 64.02 14 63 14 C62.67 14.99 62.34 15.98 62 17 C61.34 17 60.68 17 60 17 C60 18.32 60 19.64 60 21 C60.61875 21.0825 61.2375 21.165 61.875 21.25 C64 22 64 22 65.25 24.0625 C65.62125 25.0215625 65.62125 25.0215625 66 26 C69.77545388 24.90931332 72.47043472 24.0916909 75 21 C75.99 21.99 76.98 22.98 78 24 C76.71745222 24.92938245 75.42319906 25.84260827 74.125 26.75 C73.40570312 27.26046875 72.68640625 27.7709375 71.9453125 28.296875 C62.94482994 33.50139807 54.99705206 34.64098838 44.75073242 34.52148438 C42.56901499 34.50006397 40.3906012 34.52135614 38.20898438 34.546875 C26.45774666 34.57057711 15.65897038 32.56057299 7 24 C1.12400443 16.64001575 -0.31116041 9.22668715 0 0 Z " fill="#C14336" transform="translate(504,194)"/>
<path d="M0 0 C-0.58652352 4.48993869 -1.7643538 8.22543184 -3.5625 12.375 C-4.01753906 13.43460938 -4.47257812 14.49421875 -4.94140625 15.5859375 C-5.29074219 16.38257812 -5.64007813 17.17921875 -6 18 C-8.76276177 17.47731534 -11.3260876 16.89130413 -14 16 C-20.94800958 15.25904094 -25.25127903 16.04775433 -31 20 C-31.66 20.33 -32.32 20.66 -33 21 C-32.67 19.02 -32.34 17.04 -32 15 C-33.98 15.99 -33.98 15.99 -36 17 C-35.34 15.35 -34.68 13.7 -34 12 C-34.763125 12.33 -35.52625 12.66 -36.3125 13 C-39 14 -39 14 -42 14 C-42 8.72 -42 3.44 -42 -2 C-46.95 -2 -51.9 -2 -57 -2 C-57 32.65 -57 67.3 -57 103 C-51.72 103 -46.44 103 -41 103 C-41.01571045 100.16873535 -41.01571045 100.16873535 -41.03173828 97.28027344 C-41.06399723 91.04176543 -41.08697356 84.80327718 -41.10362434 78.56470871 C-41.11405858 74.78251229 -41.12821116 71.00040617 -41.15087891 67.21826172 C-41.17262021 63.56782392 -41.18457134 59.91747295 -41.18975449 56.2669754 C-41.19344794 54.87472416 -41.20066034 53.48247762 -41.21146011 52.09026337 C-41.22599126 50.13932433 -41.22681706 48.18829782 -41.22705078 46.23730469 C-41.231492 45.1269989 -41.23593323 44.01669312 -41.24050903 42.8727417 C-41 40 -41 40 -39 36 C-39 58.44 -39 80.88 -39 104 C-45.27 104 -51.54 104 -58 104 C-58 68.69 -58 33.38 -58 -3 C-52.39 -3 -46.78 -3 -41 -3 C-40.67 1.29 -40.34 5.58 -40 10 C-39.113125 8.5975 -38.22625 7.195 -37.3125 5.75 C-27.87902512 -8.32288875 -13.8382239 -6.91911195 0 0 Z " fill="#C7584E" transform="translate(500,82)"/>
<path d="M0 0 C1.39261072 0.33999638 2.78244546 0.6937691 4.16015625 1.08984375 C4.16015625 1.74984375 4.16015625 2.40984375 4.16015625 3.08984375 C2.67478943 4.55767822 2.67478943 4.55767822 0.63061523 6.25488281 C-3.55568972 9.81678058 -7.47850499 13.56736548 -11.3671875 17.44921875 C-12.04157364 18.12027649 -12.71595978 18.79133423 -13.41078186 19.48272705 C-14.81950654 20.8864328 -16.22692017 22.29145546 -17.63305664 23.69775391 C-19.79098965 25.85347567 -21.95683179 28.00104207 -24.12304688 30.1484375 C-25.49658176 31.51904237 -26.86964595 32.89011914 -28.2421875 34.26171875 C-28.89001694 34.90236267 -29.53784637 35.54300659 -30.20530701 36.20306396 C-31.09742638 37.09979828 -31.09742638 37.09979828 -32.00756836 38.01464844 C-32.53192978 38.53758484 -33.0562912 39.06052124 -33.59654236 39.5993042 C-35.0751404 41.18767353 -35.0751404 41.18767353 -35.83984375 44.08984375 C-36.83984375 43.08984375 -36.83984375 43.08984375 -36.9375 41.0234375 C-36.92589844 40.19972656 -36.91429687 39.37601563 -36.90234375 38.52734375 C-36.89332031 37.70105469 -36.88429688 36.87476563 -36.875 36.0234375 C-36.86339844 35.38535156 -36.85179687 34.74726562 -36.83984375 34.08984375 C-37.5153125 34.02925781 -38.19078125 33.96867187 -38.88671875 33.90625 C-39.77875 33.82246094 -40.67078125 33.73867187 -41.58984375 33.65234375 C-42.4715625 33.57113281 -43.35328125 33.48992187 -44.26171875 33.40625 C-46.53760327 33.1269369 -48.62683191 32.66777714 -50.83984375 32.08984375 C-20.04431652 -3.46410488 -20.04431652 -3.46410488 0 0 Z " fill="#BF3C2E" transform="translate(918.83984375,77.91015625)"/>
<path d="M0 0 C3.0625 1.9375 3.0625 1.9375 5 5 C5.69056879 8.15607058 5.90641796 10.88618773 5 14 C1.23654487 18.68226741 -3.36271656 21.05186828 -8.625 23.6875 C-10.1386764 24.46095796 -11.65172308 25.23564984 -13.1640625 26.01171875 C-13.82873535 26.34647217 -14.4934082 26.68122559 -15.17822266 27.02612305 C-17.2434871 28.09232224 -17.2434871 28.09232224 -20 30 C-20 29.01 -20 28.02 -20 27 C-19.34 27 -18.68 27 -18 27 C-18 26.34 -18 25.68 -18 25 C-17.01 25 -16.02 25 -15 25 C-15 24.34 -15 23.68 -15 23 C-16.98 22.34 -18.96 21.68 -21 21 C-21 20.01 -21 19.02 -21 18 C-22.32 17.67 -23.64 17.34 -25 17 C-24.67 15.35 -24.34 13.7 -24 12 C-24.5775 12.350625 -25.155 12.70125 -25.75 13.0625 C-28.39786506 14.16577711 -29.33185326 13.80156509 -32 13 C-11.04800425 -2.98594709 -11.04800425 -2.98594709 0 0 Z " fill="#BF3C2E" transform="translate(69,37)"/>
<path d="M0 0 C5.61 0 11.22 0 17 0 C17 4.29 17 8.58 17 13 C16.67 13 16.34 13 16 13 C16 9.04 16 5.08 16 1 C11.38 1 6.76 1 2 1 C2 35.32 2 69.64 2 105 C7.28 105 12.56 105 18 105 C17.98952637 102.80956055 17.97905273 100.61912109 17.96826172 98.36230469 C17.93512556 91.12595431 17.91303174 83.88960058 17.89637566 76.65319443 C17.88593743 72.26566302 17.87177751 67.87820933 17.84912109 63.49072266 C17.82739411 59.25673915 17.81543166 55.02283042 17.81024551 50.78879547 C17.8065495 49.17325921 17.79933215 47.55772704 17.78853989 45.9422226 C17.77402682 43.67981617 17.77202197 41.41771891 17.77294922 39.15527344 C17.768508 37.86731873 17.76406677 36.57936401 17.75949097 35.25238037 C17.98424622 32.21303682 18.38816744 30.53887454 20 28 C20.66 28 21.32 28 22 28 C21.79431396 29.29151978 21.79431396 29.29151978 21.58447266 30.60913086 C19.55841876 45.16425124 19.55810248 59.77795379 19.39910889 74.44458008 C19.35850027 78.0119698 19.30767337 81.5792141 19.2578125 85.14648438 C19.16210803 92.09755443 19.07832975 99.0487126 19 106 C12.73 106 6.46 106 0 106 C0 71.02 0 36.04 0 0 Z " fill="#CC907C" transform="translate(221,80)"/>
<path d="M0 0 C5.94 0 11.88 0 18 0 C18 27.06 18 54.12 18 82 C17.67 82 17.34 82 17 82 C16.67 55.93 16.34 29.86 16 3 C11.05 2.67 6.1 2.34 1 2 C1 49.52 1 97.04 1 146 C6.28 146 11.56 146 17 146 C17 132.47 17 118.94 17 105 C17.33 105 17.66 105 18 105 C18 118.86 18 132.72 18 147 C12.06 147 6.12 147 0 147 C0 98.49 0 49.98 0 0 Z " fill="#A45047" transform="translate(839,39)"/>
<path d="M0 0 C5.61 0 11.22 0 17 0 C17.09304904 14.32659884 17.16394147 28.65312471 17.20724869 42.97996521 C17.22804344 49.63390326 17.25621175 56.28757756 17.30175781 62.94140625 C17.34550594 69.3734845 17.36919801 75.80536369 17.37950897 82.23757935 C17.3868486 84.68054331 17.4011798 87.12349748 17.42292023 89.56637573 C17.70416473 122.50551593 17.70416473 122.50551593 11.36480713 129.90991211 C10.91442078 130.26964111 10.46403442 130.62937012 10 131 C10.1141866 129.06183265 10.24173423 127.12444901 10.375 125.1875 C10.44460938 124.10855469 10.51421875 123.02960938 10.5859375 121.91796875 C11 119 11 119 13 116 C15.00728 109.20277718 15.30261252 102.35642641 15.31884766 95.31787109 C15.32889328 94.30203949 15.3389389 93.28620789 15.34928894 92.23959351 C15.37991665 88.9175467 15.39709897 85.59557972 15.4140625 82.2734375 C15.43279058 79.95601728 15.4523652 77.63860377 15.4727478 75.32119751 C15.52390163 69.24847377 15.56361675 63.17572795 15.60089111 57.10290527 C15.6410361 50.89537166 15.69208042 44.68792853 15.7421875 38.48046875 C15.83874834 26.32037621 15.92321625 14.16023239 16 2 C11.38 2 6.76 2 2 2 C2 5.63 2 9.26 2 13 C-2.19895255 14.04973814 -4.79405774 13.72795155 -9 13 C-8.67 11.02 -8.34 9.04 -8 7 C-8.804375 6.731875 -9.60875 6.46375 -10.4375 6.1875 C-11.283125 5.795625 -12.12875 5.40375 -13 5 C-13.33 4.01 -13.66 3.02 -14 2 C-7.89032203 3.34114882 -5.12346892 6.54665357 -1 11 C-0.67 7.37 -0.34 3.74 0 0 Z " fill="#AE493F" transform="translate(577,79)"/>
<path d="M0 0 C5.00890086 0.61512818 10.00632136 1.2717552 15 2 C15.125 7.75 15.125 7.75 14 10 C15.32 10.33 16.64 10.66 18 11 C17.71758359 12.46015291 17.42373386 13.91809793 17.125 15.375 C16.96257813 16.18710938 16.80015625 16.99921875 16.6328125 17.8359375 C16 20 16 20 14 22 C11.24411546 22.62991647 9.62661157 22.36732402 7.1875 20.9375 C3.1345852 17.83026532 1.10466686 15.14481113 0.19921875 10.1015625 C-0.12261531 6.70652865 -0.12174639 3.40889895 0 0 Z " fill="#BF392B" transform="translate(506,196)"/>
<path d="M0 0 C2.2265625 0.89453125 2.2265625 0.89453125 4 2 C2.35 2.66 0.7 3.32 -1 4 C-0.38125 4.28875 0.2375 4.5775 0.875 4.875 C3 6 3 6 5 8 C4.67 8.99 4.34 9.98 4 11 C4.495 10.835 4.99 10.67 5.5 10.5 C9.03444089 9.79311182 12.39690701 9.93994845 16 10 C15.443125 10.27070312 14.88625 10.54140625 14.3125 10.8203125 C11.82061948 12.09150831 9.41100379 13.45633009 7 14.875 C6.154375 15.36742188 5.30875 15.85984375 4.4375 16.3671875 C1.5624538 18.1789555 1.5624538 18.1789555 -2 22 C-3.32 18.37 -4.64 14.74 -6 11 C-6.99 11.33 -7.98 11.66 -9 12 C-9.66 11.67 -10.32 11.34 -11 11 C-11.66 12.65 -12.32 14.3 -13 16 C-13.99 16 -14.98 16 -16 16 C-16 16.99 -16 17.98 -16 19 C-16.66 19 -17.32 19 -18 19 C-18 19.99 -18 20.98 -18 22 C-18.66 22 -19.32 22 -20 22 C-17.68719328 13.37145187 -10.89628148 6.66258733 -3.625 1.6875 C-2.42875 1.130625 -1.2325 0.57375 0 0 Z " fill="#C34D41" transform="translate(76,81)"/>
<path d="M0 0 C0.66 0 1.32 0 2 0 C2.33531415 1.95799514 2.66819143 3.91640774 3 5.875 C3.185625 6.96554688 3.37125 8.05609375 3.5625 9.1796875 C4 12 4 12 4 14 C-3.80575195 14.02312792 -11.61149595 14.04091738 -19.41727352 14.05181217 C-23.0414596 14.05704002 -26.6656223 14.06413587 -30.28979492 14.07543945 C-33.78459975 14.08627184 -37.27938204 14.09227758 -40.77420235 14.09487724 C-42.76239389 14.09763551 -44.75057631 14.10544688 -46.73875427 14.11329651 C-47.93992386 14.11337204 -49.14109344 14.11344757 -50.37866211 14.11352539 C-51.97417152 14.11685631 -51.97417152 14.11685631 -53.60191345 14.12025452 C-56 14 -56 14 -57 13 C-57.07244053 10.98035801 -57.08377188 8.95832876 -57.0625 6.9375 C-57.05347656 5.83277344 -57.04445313 4.72804688 -57.03515625 3.58984375 C-57.02355469 2.73519531 -57.01195312 1.88054687 -57 1 C-56.01 1 -55.02 1 -54 1 C-54.66 4.3 -55.32 7.6 -56 11 C-36.86 11 -17.72 11 2 11 C1.34 7.37 0.68 3.74 0 0 Z " fill="#C97065" transform="translate(688,111)"/>
<path d="M0 0 C0.66 0.33 1.32 0.66 2 1 C1.835 1.61875 1.67 2.2375 1.5 2.875 C0.92365356 4.96063386 0.92365356 4.96063386 1 7 C1.99 7.33 2.98 7.66 4 8 C4 8.66 4 9.32 4 10 C4.66 10 5.32 10 6 10 C6 9.34 6 8.68 6 8 C15.65653116 5.61777205 25.13325025 5.80461882 35 6 C35.66 7.65 36.32 9.3 37 11 C36.113125 10.67 35.22625 10.34 34.3125 10 C25.87257561 7.61554982 16.79966905 8.03174732 9 12 C4.97381299 14.73104993 1.89502543 18.10285039 -1 22 C-1 20.35 -1 18.7 -1 17 C-0.34 17 0.32 17 1 17 C1.66 15.68 2.32 14.36 3 13 C2.67 12.67 2.34 12.34 2 12 C1.01 12.99 0.02 13.98 -1 15 C-0.67 12.36 -0.34 9.72 0 7 C-0.99 7 -1.98 7 -3 7 C-2.25 2.25 -2.25 2.25 0 0 Z " fill="#D07970" transform="translate(244,86)"/>
<path d="M0 0 C1.76586914 0.07006836 1.76586914 0.07006836 4.03515625 0.33984375 C5.24848633 0.4800293 5.24848633 0.4800293 6.48632812 0.62304688 C7.33646484 0.72681641 8.18660156 0.83058594 9.0625 0.9375 C10.34350586 1.08735352 10.34350586 1.08735352 11.65039062 1.24023438 C13.76750514 1.48861094 15.88383163 1.74368731 18 2 C19.1643904 5.65357193 18.65281023 7.45563399 16.9543457 10.92456055 C16.63941162 11.52695557 16.32447754 12.12935059 16 12.75 C15.68184326 13.37108643 15.36368652 13.99217285 15.03588867 14.63208008 C11.48803792 21.32039375 7.15472432 26.56162582 1 31 C0.34 30.67 -0.32 30.34 -1 30 C0.3125 28 0.3125 28 2 26 C2.99 26 3.98 26 5 26 C4.67 24.02 4.34 22.04 4 20 C4.99 19.34 5.98 18.68 7 18 C7 18.66 7 19.32 7 20 C8.65 19.34 10.3 18.68 12 18 C11.938125 16.88625 11.938125 16.88625 11.875 15.75 C12.00809498 12.82191047 12.58477138 11.51596199 14 9 C14.67774003 7.33780547 15.34567583 5.67155081 16 4 C15.25234375 3.93941406 14.5046875 3.87882813 13.734375 3.81640625 C12.25710938 3.69072266 12.25710938 3.69072266 10.75 3.5625 C9.77546875 3.48128906 8.8009375 3.40007812 7.796875 3.31640625 C5.43538247 3.04925416 3.28098935 2.64628032 1 2 C1 2.99 1 3.98 1 5 C0.34 5 -0.32 5 -1 5 C-1 5.99 -1 6.98 -1 8 C-1.66 8 -2.32 8 -3 8 C-1.125 1.125 -1.125 1.125 0 0 Z " fill="#C8756D" transform="translate(690,151)"/>
<path d="M0 0 C2 4 2 4 2 25 C-23.74 25 -49.48 25 -76 25 C-75.67 24.34 -75.34 23.68 -75 23 C-50.58 23 -26.16 23 -1 23 C-0.67 15.41 -0.34 7.82 0 0 Z " fill="#B2483E" transform="translate(421,112)"/>
<path d="M0 0 C0.556875 0.350625 1.11375 0.70125 1.6875 1.0625 C4.53886783 2.21845993 6.08517222 1.80967438 9 1 C9.33 1.99 9.66 2.98 10 4 C10.66 4 11.32 4 12 4 C13.625 6.5 13.625 6.5 15 9 C12.0534615 10.80066242 9.11198065 12.50163895 6 14 C6.33 13.01 6.66 12.02 7 11 C6.01 11 5.02 11 4 11 C3.67 11.66 3.34 12.32 3 13 C1.68 12.67 0.36 12.34 -1 12 C-1.144375 11.38125 -1.28875 10.7625 -1.4375 10.125 C-1.93152225 7.96741678 -1.93152225 7.96741678 -3 6 C-2.34 6 -1.68 6 -1 6 C0.10836423 4.11683841 0.10836423 4.11683841 1 2 C0.67 1.34 0.34 0.68 0 0 Z " fill="#C0382A" transform="translate(679,84)"/>
<path d="M0 0 C1.73030291 0.28484846 3.45920714 0.57819938 5.1875 0.875 C6.15042969 1.03742188 7.11335938 1.19984375 8.10546875 1.3671875 C11 2 11 2 13.28125 3.0625 C17.28409167 4.44279023 21.11316697 4.21117416 25.3125 4.125 C26.56643555 4.11146484 26.56643555 4.11146484 27.84570312 4.09765625 C29.89725969 4.07420989 31.94866777 4.03834266 34 4 C34.33 3.34 34.66 2.68 35 2 C40.61 2 46.22 2 52 2 C41.85952981 8.76031346 25.31278553 8.41269303 13.62109375 6.42578125 C8.77300606 5.17913013 4.35098668 3.46947893 0 1 C0 0.67 0 0.34 0 0 Z " fill="#BF5B4F" transform="translate(71,176)"/>
<path d="M0 0 C2.79310605 0.28110489 5.58398875 0.57436052 8.375 0.875 C9.1690625 0.95363281 9.963125 1.03226563 10.78125 1.11328125 C16.7734375 1.7734375 16.7734375 1.7734375 19 4 C19.81640625 5.8046875 19.81640625 5.8046875 20.5625 7.875 C20.81128906 8.55304688 21.06007813 9.23109375 21.31640625 9.9296875 C21.97936586 11.93750802 22.5156191 13.94253445 23 16 C23.66 16 24.32 16 25 16 C24.67 17.32 24.34 18.64 24 20 C22.35 20.33 20.7 20.66 19 21 C19 18.36 19 15.72 19 13 C18.01 12.67 17.02 12.34 16 12 C16.33 9.36 16.66 6.72 17 4 C15.515 4.061875 15.515 4.061875 14 4.125 C9.76164134 4.1423348 6.06806015 3.14191162 2 2 C2.66 7.28 3.32 12.56 4 18 C0.80626843 14.80626843 0.09811818 10.93170168 -0.125 6.5390625 C-0.125 4.3555768 -0.07267526 2.18196109 0 0 Z " fill="#C34E43" transform="translate(504,194)"/>
<path d="M0 0 C0 0.33 0 0.66 0 1 C-1.35931641 1.03867188 -1.35931641 1.03867188 -2.74609375 1.078125 C-9.50303951 1.39273411 -14.96940771 1.89823317 -20.9921875 5.04296875 C-23.04417694 6.0210571 -24.76742008 6.38665856 -27 6.75 C-31.79436667 7.77048768 -34.70210249 10.976623 -38.1171875 14.3203125 C-40 16 -40 16 -42 16 C-42.28875 16.598125 -42.5775 17.19625 -42.875 17.8125 C-44 20 -44 20 -46 23 C-46.66 22.67 -47.32 22.34 -48 22 C-45.04687558 13.63281415 -38.8178143 9.02387481 -31.0625 5.125 C-20.53860201 0.10565498 -11.52470242 -0.2733131 0 0 Z " fill="#D1847F" transform="translate(383,77)"/>
<path d="M0 0 C0.66 0.33 1.32 0.66 2 1 C1.84015625 2.10859375 1.6803125 3.2171875 1.515625 4.359375 C-0.37125536 19.57485703 -0.84369081 36.30813931 8.50390625 49.15234375 C10.20773742 51.256553 11.97054848 53.20471597 14 55 C13.01 55.495 13.01 55.495 12 56 C10 54 10 54 9 52 C7.35 52 5.7 52 4 52 C3.87625 51.236875 3.7525 50.47375 3.625 49.6875 C3.11897208 46.79732864 3.11897208 46.79732864 1 44 C0.74239721 41.30547479 0.91099947 38.71451625 1 36 C0.34 36 -0.32 36 -1 36 C-1.02468447 31.19450253 -1.04285255 26.38904182 -1.05493164 21.58349609 C-1.05996621 19.94807289 -1.06679427 18.3126542 -1.07543945 16.67724609 C-1.08754335 14.32909025 -1.093237 11.98099381 -1.09765625 9.6328125 C-1.10281754 8.89942657 -1.10797882 8.16604065 -1.11329651 7.41043091 C-1.11387171 2.22774341 -1.11387171 2.22774341 0 0 Z " fill="#DC9089" transform="translate(520,112)"/>
<path d="M0 0 C0.66 0 1.32 0 2 0 C1.86287598 0.86101318 1.72575195 1.72202637 1.58447266 2.60913086 C-0.44158124 17.16425124 -0.44189752 31.77795379 -0.60089111 46.44458008 C-0.64149973 50.0119698 -0.69232663 53.5792141 -0.7421875 57.14648438 C-0.8378919 64.09754893 -0.92261941 71.04870786 -1 78 C-1.33 78 -1.66 78 -2 78 C-2.04633418 68.42069735 -2.08187471 58.84143325 -2.10362434 49.262043 C-2.1140629 44.81397799 -2.12822345 40.36598964 -2.15087891 35.91796875 C-2.17260467 31.62563066 -2.18456808 27.33336631 -2.18975449 23.04097748 C-2.19345072 21.40311268 -2.20066849 19.76525193 -2.21146011 18.12741852 C-2.22597155 15.83388028 -2.2279781 13.54064705 -2.22705078 11.24707031 C-2.231492 9.94135071 -2.23593323 8.6356311 -2.24050903 7.29034424 C-2.01684817 4.2304956 -1.62626858 2.5521487 0 0 Z " fill="#AD4B3F" transform="translate(241,108)"/>
<path d="M0 0 C5.28 0.66 10.56 1.32 16 2 C16 3.98 16 5.96 16 8 C15.34 8 14.68 8 14 8 C13.67 8.66 13.34 9.32 13 10 C12.01 9.34 11.02 8.68 10 8 C9.67 8.99 9.34 9.98 9 11 C6.4345406 8.4345406 6.45953913 6.52313332 6 3 C5.34 3 4.68 3 4 3 C4 3.66 4 4.32 4 5 C2.02 5.33 0.04 5.66 -2 6 C-2 5.01 -2 4.02 -2 3 C-1.34 3 -0.68 3 0 3 C0 2.01 0 1.02 0 0 Z " fill="#BE392E" transform="translate(801,153)"/>
<path d="M0 0 C0 5.61 0 11.22 0 17 C-2.31 18.32 -4.62 19.64 -7 21 C-7.66 20.67 -8.32 20.34 -9 20 C-8.67 19.01 -8.34 18.02 -8 17 C-4.535 16.505 -4.535 16.505 -1 16 C-1.33 14.02 -1.66 12.04 -2 10 C-2.66 10 -3.32 10 -4 10 C-4.66 9.34 -5.32 8.68 -6 8 C-8.36169638 8.31489285 -9.94902071 8.96973105 -12 10.1875 C-12.66 10.455625 -13.32 10.72375 -14 11 C-16.125 10.05078125 -16.125 10.05078125 -18 9 C-17.443125 8.76925781 -16.88625 8.53851563 -16.3125 8.30078125 C-11.4279278 6.21328671 -6.96813701 3.87583628 -2.53125 0.953125 C-1 0 -1 0 0 0 Z M-16 11 C-14 12 -14 12 -14 12 Z " fill="#C65D53" transform="translate(132,157)"/>
<path d="M0 0 C0.98120464 3.05263664 0.98120464 4.94736336 0 8 C0.99 8.33 1.98 8.66 3 9 C3.33 16.92 3.66 24.84 4 33 C2.515 33.495 2.515 33.495 1 34 C0.67 35.98 0.34 37.96 0 40 C-0.66 40 -1.32 40 -2 40 C-1.67515625 39.08734375 -1.67515625 39.08734375 -1.34375 38.15625 C1.34957925 29.67725051 1.29758959 21.78440369 1 13 C0.01 13.33 -0.98 13.66 -2 14 C-2.144375 12.948125 -2.28875 11.89625 -2.4375 10.8125 C-2.87526966 7.84539451 -3.37804866 4.93205634 -4 2 C-2.68 1.34 -1.36 0.68 0 0 Z " fill="#C33A2D" transform="translate(573,163)"/>
<path d="M0 0 C2.97 0 5.94 0 9 0 C9 0.66 9 1.32 9 2 C11.64 2 14.28 2 17 2 C17 2.66 17 3.32 17 4 C30.04454645 4.1183055 42.98818941 3.96639442 56 3 C44.04752249 10.17148651 22.07734326 6.86400229 9.0234375 3.8515625 C5.97891483 2.99406128 2.98942819 2.03238511 0 1 C0 0.67 0 0.34 0 0 Z " fill="#D18F8B" transform="translate(63,215)"/>
<path d="M0 0 C5.61 0 11.22 0 17 0 C17 0.33 17 0.66 17 1 C11.72 1 6.44 1 1 1 C1 5.29 1 9.58 1 14 C-2.3 13.67 -5.6 13.34 -9 13 C-8.67 11.02 -8.34 9.04 -8 7 C-8.804375 6.731875 -9.60875 6.46375 -10.4375 6.1875 C-11.283125 5.795625 -12.12875 5.40375 -13 5 C-13.33 4.01 -13.66 3.02 -14 2 C-7.89032203 3.34114882 -5.12346892 6.54665357 -1 11 C-0.67 7.37 -0.34 3.74 0 0 Z " fill="#D37F77" transform="translate(577,79)"/>
<path d="M0 0 C1.74410156 0.433125 1.74410156 0.433125 3.5234375 0.875 C17.27965195 4.12828605 31.12448015 6.03239222 45.0546875 2.4375 C47 2 47 2 51 2 C51 2.66 51 3.32 51 4 C44.03096981 6.23719186 37.35931672 6.30701838 30.07348633 6.26074219 C28.07049937 6.25004273 26.06743425 6.26169555 24.06445312 6.2734375 C15.50815533 6.25631634 7.71050043 6.0726656 0 2 C0 1.34 0 0.68 0 0 Z " fill="#CB827C" transform="translate(68,196)"/>
<path d="M0 0 C3.14735717 0.27654417 6.29241854 0.5737556 9.4375 0.875 C10.78424805 0.99294922 10.78424805 0.99294922 12.15820312 1.11328125 C13.01220703 1.19707031 13.86621094 1.28085938 14.74609375 1.3671875 C15.53685303 1.44050293 16.3276123 1.51381836 17.14233398 1.58935547 C17.75536377 1.72486816 18.36839355 1.86038086 19 2 C20 4 20 4 19.0625 7.125 C18.5365625 8.548125 18.5365625 8.548125 18 10 C17.731875 9.38125 17.46375 8.7625 17.1875 8.125 C16.04443152 5.7004767 16.04443152 5.7004767 13 4 C10.95130926 3.55570562 8.88545707 3.18705805 6.8125 2.875 C5.18248047 2.62363281 5.18248047 2.62363281 3.51953125 2.3671875 C2.27236328 2.18542969 2.27236328 2.18542969 1 2 C1 2.99 1 3.98 1 5 C0.34 5 -0.32 5 -1 5 C-1.12375 5.7425 -1.2475 6.485 -1.375 7.25 C-1.95486701 9.80141485 -2.73708739 11.7267573 -4 14 C-4.66 14 -5.32 14 -6 14 C-6.33 14.99 -6.66 15.98 -7 17 C-7.99 16.67 -8.98 16.34 -10 16 C-9.41992188 15.27296875 -9.41992188 15.27296875 -8.828125 14.53125 C-8.30734375 13.8609375 -7.7865625 13.190625 -7.25 12.5 C-6.73953125 11.8503125 -6.2290625 11.200625 -5.703125 10.53125 C-3.45084514 7.18382489 -1.7372981 3.63516805 0 0 Z " fill="#C87A71" transform="translate(800,151)"/>
<path d="M0 0 C0.66 0 1.32 0 2 0 C6.54259811 11.84320222 8.40590681 24.76136998 4 37 C3.34 37.66 2.68 38.32 2 39 C2.0721875 38.42894531 2.144375 37.85789063 2.21875 37.26953125 C3.47287176 26.31338419 3.48695055 16.39965534 0.65625 5.6796875 C0 3 0 3 0 0 Z " fill="#BF695F" transform="translate(573,109)"/>
<path d="M0 0 C0 0.33 0 0.66 0 1 C-10.56 1 -21.12 1 -32 1 C-32 1.99 -32 2.98 -32 4 C-34.64 4 -37.28 4 -40 4 C-29.58088332 -4.71106476 -12.29772922 -3.45199417 0 0 Z " fill="#CB7F76" transform="translate(788,79)"/>
<path d="M0 0 C0 0.33 0 0.66 0 1 C-9.57 1 -19.14 1 -29 1 C-28.67 1.99 -28.34 2.98 -28 4 C-31.3 4.33 -34.6 4.66 -38 5 C-28.68948958 -4.31051042 -11.8082888 -3.77865242 0 0 Z " fill="#CA7D75" transform="translate(561,79)"/>
<path d="M0 0 C6.4596331 1.32505294 10.38917374 5.59409935 15 10 C14.67 10.66 14.34 11.32 14 12 C13.05125 11.95875 12.1025 11.9175 11.125 11.875 C7.89755144 11.65026182 7.89755144 11.65026182 6 14 C5.34 14 4.68 14 4 14 C3.67 12.68 3.34 11.36 3 10 C3.99 9.67 4.98 9.34 6 9 C5.690625 8.401875 5.38125 7.80375 5.0625 7.1875 C4 5 4 5 3 2 C0.98491642 1.26676204 0.98491642 1.26676204 -1 1 C-0.67 0.67 -0.34 0.34 0 0 Z " fill="#C03B30" transform="translate(115,80)"/>
<path d="M0 0 C0.66 0.66 1.32 1.32 2 2 C1.67 2.99 1.34 3.98 1 5 C0.34 5 -0.32 5 -1 5 C-3.2773501 7.81509993 -3.2773501 7.81509993 -3 11 C-4.5 12.6875 -4.5 12.6875 -6 14 C-6.99 13.67 -7.98 13.34 -9 13 C-9.99 14.32 -10.98 15.64 -12 17 C-13.32 16.67 -14.64 16.34 -16 16 C-10.72 10.72 -5.44 5.44 0 0 Z " fill="#C15449" transform="translate(884,94)"/>
<path d="M0 0 C2.2265625 0.89453125 2.2265625 0.89453125 4 2 C2.824375 2.433125 2.824375 2.433125 1.625 2.875 C-1.09671632 3.84912254 -1.09671632 3.84912254 -3 6 C-5.125 6.625 -5.125 6.625 -7 7 C-7.33 8.65 -7.66 10.3 -8 12 C-8.99 11.67 -9.98 11.34 -11 11 C-11.66 12.65 -12.32 14.3 -13 16 C-13.99 16 -14.98 16 -16 16 C-16 16.99 -16 17.98 -16 19 C-16.66 19 -17.32 19 -18 19 C-18 19.99 -18 20.98 -18 22 C-18.66 22 -19.32 22 -20 22 C-17.68719328 13.37145187 -10.89628148 6.66258733 -3.625 1.6875 C-2.42875 1.130625 -1.2325 0.57375 0 0 Z " fill="#C66F65" transform="translate(76,81)"/>
<path d="M0 0 C0.33 0 0.66 0 1 0 C1 4.62 1 9.24 1 14 C1.33 14 1.66 14 2 14 C2.06058594 15.22976562 2.12117187 16.45953125 2.18359375 17.7265625 C2.26805005 19.35938427 2.35269547 20.99219627 2.4375 22.625 C2.47681641 23.43324219 2.51613281 24.24148437 2.55664062 25.07421875 C2.74405727 28.62071838 2.99314524 31.96406319 3.66015625 35.4609375 C3.77230469 36.29882812 3.88445313 37.13671875 4 38 C3.34 38.66 2.68 39.32 2 40 C-1.61157067 26.82206653 -2.22686769 13.48691643 0 0 Z " fill="#CD7D73" transform="translate(723,117)"/>
<path d="M0 0 C1.99023038 1.99023038 2.56144613 3.15783215 3.625 5.6875 C6.02812062 10.68489856 9.74332252 13.59097258 14 17 C14.66 17.66 15.32 18.32 16 19 C11.82412255 20.39195915 9.86525224 18.82323219 6 17 C6 16.01 6 15.02 6 14 C5.34 14 4.68 14 4 14 C4 13.01 4 12.02 4 11 C3.34 11 2.68 11 2 11 C-0.67927341 6.98108988 -0.15601248 4.75838077 0 0 Z " fill="#C3675C" transform="translate(69,147)"/>
<path d="M0 0 C8.51461778 -0.66491592 15.38665138 1.19332569 23 5 C22.36843005 10.05255964 20.86540627 14.29593201 19 19 C18.67 19 18.34 19 18 19 C18 17.02 18 15.04 18 13 C18.66 13 19.32 13 20 13 C20 11.35 20 9.7 20 8 C17.525 7.505 17.525 7.505 15 7 C15 6.01 15 5.02 15 4 C10.01770224 2.08373163 5.27315333 1.4452885 0 1 C0 0.67 0 0.34 0 0 Z " fill="#CE8178" transform="translate(477,77)"/>
<path d="M0 0 C0.33 0.99 0.66 1.98 1 3 C3.01508358 3.73323796 3.01508358 3.73323796 5 4 C-7.69584009 14.64289573 -7.69584009 14.64289573 -15 18 C-15.66 17.67 -16.32 17.34 -17 17 C-16.505 15.515 -16.505 15.515 -16 14 C-14.68 14 -13.36 14 -12 14 C-12 13.01 -12 12.02 -12 11 C-10.1875 9.9375 -10.1875 9.9375 -8 9 C-7.01 9.33 -6.02 9.66 -5 10 C-4.67 9.01 -4.34 8.02 -4 7 C-3.01 6.34 -2.02 5.68 -1 5 C-0.27034634 2.43717258 -0.27034634 2.43717258 0 0 Z " fill="#C66A64" transform="translate(156,193)"/>
<path d="M0 0 C1.81054502 3.18928642 2.48895852 6.07756247 3.0625 9.6875 C3.37052407 13.1517996 3.37052407 13.1517996 5 16 C5.33333333 18.33333333 5.66666667 20.66666667 6 23 C6.33 23.33 6.66 23.66 7 24 C7.04080783 25.99958364 7.04254356 28.00045254 7 30 C7.66 30 8.32 30 9 30 C9.33 31.98 9.66 33.96 10 36 C2.48297223 29.6006644 1.33297971 17.59020959 0.26171875 8.3125 C0.04106848 5.51979213 -0.05830746 2.79875829 0 0 Z " fill="#C6786F" transform="translate(500,130)"/>
<path d="M0 0 C0.66 0.33 1.32 0.66 2 1 C1.835 1.61875 1.67 2.2375 1.5 2.875 C0.92365356 4.96063386 0.92365356 4.96063386 1 7 C1.99 7.33 2.98 7.66 4 8 C4 8.66 4 9.32 4 10 C4.66 10 5.32 10 6 10 C5.55166054 14.9317341 3.13973905 18.3192924 0 22 C-0.33 22 -0.66 22 -1 22 C-1 20.35 -1 18.7 -1 17 C-0.34 17 0.32 17 1 17 C1.66 15.68 2.32 14.36 3 13 C2.67 12.67 2.34 12.34 2 12 C1.01 12.99 0.02 13.98 -1 15 C-0.67 12.36 -0.34 9.72 0 7 C-0.99 7 -1.98 7 -3 7 C-2.25 2.25 -2.25 2.25 0 0 Z " fill="#BE4031" transform="translate(244,86)"/>
<path d="M0 0 C0.33 0 0.66 0 1 0 C0.11113705 19.55498482 0.11113705 19.55498482 -4.6015625 24.7734375 C-5.29378906 25.38058594 -5.29378906 25.38058594 -6 26 C-5.8858134 24.06183265 -5.75826577 22.12444901 -5.625 20.1875 C-5.55539062 19.10855469 -5.48578125 18.02960938 -5.4140625 16.91796875 C-5 14 -5 14 -3 11 C-2.58578198 9.30522561 -2.23569173 7.59398764 -1.9375 5.875 C-1.10017575 1.10017575 -1.10017575 1.10017575 0 0 Z " fill="#C56B61" transform="translate(593,184)"/>
<path d="M0 0 C2.97 0.495 2.97 0.495 6 1 C5.29875 1.495 4.5975 1.99 3.875 2.5 C-2.37409045 7.9339917 -5.99350603 14.35996827 -9 22 C-9.33 22 -9.66 22 -10 22 C-9.67 18.7 -9.34 15.4 -9 12 C-8.01 11.67 -7.02 11.34 -6 11 C-6 10.34 -6 9.68 -6 9 C-5.34 9 -4.68 9 -4 9 C-4 7.35 -4 5.7 -4 4 C-3.01 3.67 -2.02 3.34 -1 3 C-0.67 2.01 -0.34 1.02 0 0 Z " fill="#C66E6A" transform="translate(752,95)"/>
<path d="M0 0 C0.66 0 1.32 0 2 0 C2 0.99 2 1.98 2 3 C2.66 3 3.32 3 4 3 C4.33 2.34 4.66 1.68 5 1 C7.0625 0.375 7.0625 0.375 9 0 C7.59155282 3.21524305 5.89655214 5.32183868 3.375 7.75 C2.42753906 8.67039062 2.42753906 8.67039062 1.4609375 9.609375 C0.97882812 10.06828125 0.49671875 10.5271875 0 11 C-1.32 9.35 -2.64 7.7 -4 6 C-2.7260411 3.96166576 -1.38938077 1.96147874 0 0 Z " fill="#C4493F" transform="translate(39,66)"/>
<path d="M0 0 C5.75 -0.125 5.75 -0.125 8 1 C8 1.99 8 2.98 8 4 C9.32 4 10.64 4 12 4 C13.02167244 4.97784735 14.02004418 5.98034977 15 7 C17.2603044 7.99373439 17.2603044 7.99373439 19.6875 8.6875 C20.49574219 8.93886719 21.30398437 9.19023437 22.13671875 9.44921875 C22.75160156 9.63097656 23.36648437 9.81273437 24 10 C23.67 10.66 23.34 11.32 23 12 C18.57473576 11.37021856 14.88637005 9.68496661 10.9375 7.6875 C10.32583984 7.39166016 9.71417969 7.09582031 9.08398438 6.79101562 C5.4446876 4.96940005 2.69840567 3.04832362 0 0 Z " fill="#C76F69" transform="translate(40,203)"/>
<path d="M0 0 C0.66 0.33 1.32 0.66 2 1 C1.34 2.32 0.68 3.64 0 5 C-7.59 5.33 -15.18 5.66 -23 6 C-23 5.34 -23 4.68 -23 4 C-24.32 4 -25.64 4 -27 4 C-27.33 3.01 -27.66 2.02 -28 1 C-26.741875 1.33 -25.48375 1.66 -24.1875 2 C-15.35042351 3.93137364 -8.29902343 3.47050071 0 0 Z " fill="#C97A72" transform="translate(676,169)"/>
<path d="M0 0 C0 0.66 0 1.32 0 2 C1.65 2.66 3.3 3.32 5 4 C5 4.99 5 5.98 5 7 C5.66 7.33 6.32 7.66 7 8 C3.43574334 8 2.86028134 7.32859487 0.1875 5.125 C-6.74224493 -0.20075334 -13.48054447 -0.47614998 -22 -1 C-22 -1.33 -22 -1.66 -22 -2 C-13.53471125 -3.03280211 -7.99323739 -3.2514864 0 0 Z " fill="#C97068" transform="translate(392,94)"/>
<path d="M0 0 C11.55 0 23.1 0 35 0 C24.41515244 5.29242378 11.19345825 3.51235937 0 1 C0 0.67 0 0.34 0 0 Z " fill="#CE857C" transform="translate(645,186)"/>
<path d="M0 0 C0.99 0.33 1.98 0.66 3 1 C2.67 2.32 2.34 3.64 2 5 C-14.83 5 -31.66 5 -49 5 C-49 4.67 -49 4.34 -49 4 C-32.83 4 -16.66 4 0 4 C0 2.68 0 1.36 0 0 Z " fill="#B63C2D" transform="translate(801,120)"/>
<path d="M0 0 C10.32047132 1.63970105 10.32047132 1.63970105 15.25 3.5625 C21.55092175 5.84327241 28.36881337 5.7466345 35 6 C35 6.33 35 6.66 35 7 C22.45150051 7.37272771 11.22626513 7.371664 0 1 C0 0.67 0 0.34 0 0 Z " fill="#D28982" transform="translate(71,176)"/>
<path d="M0 0 C1.58670538 4.01697565 0.31944118 6.98008762 -0.875 11 C-3.53923036 20.57132672 -3.79745833 30.11596629 -4 40 C-4.33 40 -4.66 40 -5 40 C-5.69096581 10.7880917 -5.69096581 10.7880917 0 0 Z " fill="#CE7F77" transform="translate(55,103)"/>
<path d="M0 0 C0 0.66 0 1.32 0 2 C-0.66 2.66 -1.32 3.32 -2 4 C-2.639375 4.70125 -3.27875 5.4025 -3.9375 6.125 C-6 8 -6 8 -9 8 C-9.33 8.66 -9.66 9.32 -10 10 C-12.64860427 10.59355614 -15.29197322 10.74209269 -18 11 C-13.90793979 6.20241216 -6.54758015 0 0 0 Z " fill="#C56259" transform="translate(55,40)"/>
<path d="M0 0 C0 0.33 0 0.66 0 1 C-0.59538574 1.02505615 -1.19077148 1.0501123 -1.80419922 1.07592773 C-4.49469136 1.19177494 -7.1848234 1.31455196 -9.875 1.4375 C-10.81214844 1.47681641 -11.74929688 1.51613281 -12.71484375 1.55664062 C-13.61074219 1.59853516 -14.50664062 1.64042969 -15.4296875 1.68359375 C-16.25710449 1.72025146 -17.08452148 1.75690918 -17.93701172 1.79467773 C-20.06179429 1.88238327 -20.06179429 1.88238327 -22 3 C-24.6723621 3.13415472 -27.32250488 3.04318541 -30 3 C-23.48105937 -3.51894063 -8.26613547 -1.94223108 0 0 Z " fill="#CE8178" transform="translate(284,78)"/>
<path d="M0 0 C1.29808594 -0.01417969 2.59617187 -0.02835937 3.93359375 -0.04296875 C7.31722799 0.17192298 9.54355663 0.71583782 12.5625 2.1875 C12.5625 3.1775 12.5625 4.1675 12.5625 5.1875 C11.5725 4.8575 10.5825 4.5275 9.5625 4.1875 C2.74675987 2.43417555 -4.45790004 3.03503301 -11.4375 3.1875 C-11.4375 2.5275 -11.4375 1.8675 -11.4375 1.1875 C-7.63870653 -0.02076764 -3.96419448 0.01964417 0 0 Z " fill="#C77168" transform="translate(663.4375,90.8125)"/>
<path d="M0 0 C7.92 0 15.84 0 24 0 C24 0.66 24 1.32 24 2 C22.25 3.5078125 22.25 3.5078125 20 5.125 C19.2575 5.66382812 18.515 6.20265625 17.75 6.7578125 C17.1725 7.16773437 16.595 7.57765625 16 8 C15.61781233 6.34385343 15.28604898 4.67542976 15 3 C15.33 2.67 15.66 2.34 16 2 C10.72 1.67 5.44 1.34 0 1 C0 0.67 0 0.34 0 0 Z " fill="#DD958E" transform="translate(899,79)"/>
<path d="M0 0 C2.64 0.33 5.28 0.66 8 1 C7.33333333 4.33333333 6.66666667 7.66666667 6 11 C4.0625 10.4375 4.0625 10.4375 2 9 C1.3125 5.5 1.3125 5.5 1 2 C0.67 1.34 0.34 0.68 0 0 Z " fill="#BE382C" transform="translate(698,154)"/>
<path d="M0 0 C2.30859375 1.53125 2.30859375 1.53125 4 3 C2.0625 3.5625 2.0625 3.5625 0 4 C-0.33 3.67 -0.66 3.34 -1 3 C-6.87646031 2.53668563 -6.87646031 2.53668563 -12 5 C-12.79437923 7.18505129 -12.79437923 7.18505129 -13.1875 9.625 C-13.34605469 10.44226562 -13.50460938 11.25953125 -13.66796875 12.1015625 C-13.77753906 12.72804688 -13.88710937 13.35453125 -14 14 C-14.33 14 -14.66 14 -15 14 C-15.46105691 9.29721953 -15.64522502 6.05386753 -13.125 1.9375 C-8.8385177 -0.72011903 -4.9334497 -0.96262433 0 0 Z " fill="#C67872" transform="translate(133,37)"/>
<path d="M0 0 C5.61 0.66 11.22 1.32 17 2 C17 2.33 17 2.66 17 3 C15.43759968 3.02730408 13.8750573 3.04653226 12.3125 3.0625 C11.44238281 3.07410156 10.57226562 3.08570313 9.67578125 3.09765625 C7 3 7 3 2 2 C2.66 7.28 3.32 12.56 4 18 C0.80626843 14.80626843 0.09811818 10.93170168 -0.125 6.5390625 C-0.125 4.35897679 -0.06704783 2.17905445 0 0 Z " fill="#D28B88" transform="translate(504,194)"/>
<path d="M0 0 C0 0.66 0 1.32 0 2 C0.639375 2.12375 1.27875 2.2475 1.9375 2.375 C2.618125 2.58125 3.29875 2.7875 4 3 C4.33 3.66 4.66 4.32 5 5 C7.52733235 5.65555119 7.52733235 5.65555119 10 6 C9.34 7.65 8.68 9.3 8 11 C7.5153125 10.60167969 7.030625 10.20335938 6.53125 9.79296875 C1.84798669 6.09138948 -2.3175548 3.82650024 -8 2 C-4.77208445 -0.1519437 -3.71599191 -0.20086443 0 0 Z " fill="#C3645B" transform="translate(561,92)"/>
<path d="M0 0 C-0.66 1.32 -1.32 2.64 -2 4 C-4.7708983 4.02696009 -7.5415345 4.04681952 -10.3125 4.0625 C-11.49102539 4.07506836 -11.49102539 4.07506836 -12.69335938 4.08789062 C-13.45068359 4.09111328 -14.20800781 4.09433594 -14.98828125 4.09765625 C-16.03302612 4.10551147 -16.03302612 4.10551147 -17.09887695 4.11352539 C-19 4 -19 4 -22 3 C-22 2.34 -22 1.68 -22 1 C-20.87980469 1.01160156 -19.75960937 1.02320313 -18.60546875 1.03515625 C-17.13281417 1.04453622 -15.66015778 1.0536362 -14.1875 1.0625 C-13.44951172 1.07087891 -12.71152344 1.07925781 -11.95117188 1.08789062 C-7.77522654 1.10678631 -4.07549292 0 0 0 Z " fill="#C06B62" transform="translate(785,171)"/>
<path d="M0 0 C0.66 0 1.32 0 2 0 C2.23074219 0.51949219 2.46148438 1.03898438 2.69921875 1.57421875 C4.88512874 6.24843734 7.15724956 9.46062459 11 13 C11.99 14.485 11.99 14.485 13 16 C12.34 16.33 11.68 16.66 11 17 C9 15 9 15 8 13 C6.35 13 4.7 13 3 13 C2.87625 12.236875 2.7525 11.47375 2.625 10.6875 C2.11897208 7.79732864 2.11897208 7.79732864 0 5 C-0.125 2.3125 -0.125 2.3125 0 0 Z " fill="#C76F66" transform="translate(521,151)"/>
<path d="M0 0 C-3.30542286 2.65570829 -6.81573401 4.58894749 -10.5625 6.5625 C-13.8164351 8.27995723 -16.93799084 9.95866056 -20 12 C-20 11.01 -20 10.02 -20 9 C-19.34 9 -18.68 9 -18 9 C-18 8.34 -18 7.68 -18 7 C-17.01 7 -16.02 7 -15 7 C-15 6.01 -15 5.02 -15 4 C-13.02 4 -11.04 4 -9 4 C-9 3.01 -9 2.02 -9 1 C-5.92677456 0.08941469 -3.19902639 -0.08886184 0 0 Z " fill="#C67268" transform="translate(69,55)"/>
<path d="M0 0 C4.56030824 3.80475422 8.85089392 7.74969621 13 12 C12.67 12.66 12.34 13.32 12 14 C9.4375 14.625 9.4375 14.625 7 15 C6.67 14.01 6.34 13.02 6 12 C6.66 11.01 7.32 10.02 8 9 C7.21625 8.9175 6.4325 8.835 5.625 8.75 C3 8 3 8 1.75 6.1875 C1.0475774 4.13876743 0.51137484 2.10280859 0 0 Z " fill="#C26157" transform="translate(160,55)"/>
<path d="M0 0 C0.33 0 0.66 0 1 0 C1.33 7.59 1.66 15.18 2 23 C1.01 23.33 0.02 23.66 -1 24 C-1.33 25.98 -1.66 27.96 -2 30 C-2.66 30 -3.32 30 -4 30 C-3.7834375 29.41476563 -3.566875 28.82953125 -3.34375 28.2265625 C-0.76141667 20.26436807 -0.78726702 12.91061934 -0.9921875 4.6484375 C-0.99605469 2.84246094 -0.99605469 2.84246094 -1 1 C-0.67 0.67 -0.34 0.34 0 0 Z " fill="#DA9490" transform="translate(575,173)"/>
<path d="M0 0 C0.99 0.33 1.98 0.66 3 1 C-4.11389522 10.59453303 -4.11389522 10.59453303 -9 14 C-9.33 13.01 -9.66 12.02 -10 11 C-8.71034824 9.62437146 -7.37310707 8.29233607 -6 7 C-5.34 7 -4.68 7 -4 7 C-3.8453125 6.1028125 -3.8453125 6.1028125 -3.6875 5.1875 C-2.91123545 2.71756736 -1.92911079 1.67748765 0 0 Z " fill="#C7675E" transform="translate(173,179)"/>
<path d="M0 0 C0.33 0.66 0.66 1.32 1 2 C1.99 1.67 2.98 1.34 4 1 C3.52379711 5.37653129 2.33100111 7.06538005 -1.0625 9.8125 C-1.79597656 10.41707031 -2.52945313 11.02164063 -3.28515625 11.64453125 C-3.85105469 12.09183594 -4.41695312 12.53914062 -5 13 C-5.66 12.67 -6.32 12.34 -7 12 C-5.6875 10 -5.6875 10 -4 8 C-3.01 8 -2.02 8 -1 8 C-1.20625 7.05125 -1.4125 6.1025 -1.625 5.125 C-1.74875 4.09375 -1.8725 3.0625 -2 2 C-1.34 1.34 -0.68 0.68 0 0 Z " fill="#C66D64" transform="translate(696,169)"/>
<path d="M0 0 C5.37313433 0.59701493 5.37313433 0.59701493 7.75 2.125 C9.58820692 4.88231038 10.21679556 7.80693572 11 11 C7.84164893 9.60249952 5.67727175 7.94801766 3.25 5.5 C2.63640625 4.8915625 2.0228125 4.283125 1.390625 3.65625 C0 2 0 2 0 0 Z " fill="#C5645B" transform="translate(732,169)"/>
<path d="M0 0 C1.32 0.33 2.64 0.66 4 1 C3.01 3.64 2.02 6.28 1 9 C-1.64 7.02 -4.28 5.04 -7 3 C-3 2 -3 2 -1 3 C-0.67 2.01 -0.34 1.02 0 0 Z " fill="#C3544A" transform="translate(683,94)"/>
<path d="M0 0 C3.37462715 0.54723683 5.08235 1.0549 8 3 C10.0492094 3.45139459 10.0492094 3.45139459 12.1875 3.625 C13.445625 3.74875 14.70375 3.8725 16 4 C16.33 5.32 16.66 6.64 17 8 C10.27137118 7.70745092 5.44708838 4.85789761 0 1 C0 0.67 0 0.34 0 0 Z " fill="#C66D65" transform="translate(519,177)"/>
<path d="M0 0 C0 5.61 0 11.22 0 17 C-2.31 18.32 -4.62 19.64 -7 21 C-7.66 20.67 -8.32 20.34 -9 20 C-8.505 18.515 -8.505 18.515 -8 17 C-4.535 16.505 -4.535 16.505 -1 16 C-1 11.71 -1 7.42 -1 3 C-2.32 3.33 -3.64 3.66 -5 4 C-1.125 0 -1.125 0 0 0 Z " fill="#C2776F" transform="translate(132,157)"/>
<path d="M0 0 C0.66 0 1.32 0 2 0 C1.86722656 0.77601562 1.73445313 1.55203125 1.59765625 2.3515625 C0.25621992 10.55684459 -0.52720483 18.70120055 -1 27 C-1.33 27 -1.66 27 -2 27 C-2.05827558 23.4375692 -2.09368885 19.87526181 -2.125 16.3125 C-2.14175781 15.30509766 -2.15851562 14.29769531 -2.17578125 13.25976562 C-2.18544922 11.79506836 -2.18544922 11.79506836 -2.1953125 10.30078125 C-2.20578613 9.40528564 -2.21625977 8.50979004 -2.22705078 7.5871582 C-1.97703456 4.73831743 -1.18016512 2.59105457 0 0 Z " fill="#CD7C71" transform="translate(21,104)"/>
<path d="M0 0 C0.99 0.33 1.98 0.66 3 1 C7.02631965 1.87528688 10.00507639 2.05747978 14 1 C14 4 14 4 12.3125 5.8125 C10 7 10 7 7.625 6.375 C6.75875 5.92125 5.8925 5.4675 5 5 C3.906875 4.46375 2.81375 3.9275 1.6875 3.375 C0.800625 2.92125 -0.08625 2.4675 -1 2 C-0.67 1.34 -0.34 0.68 0 0 Z " fill="#C86158" transform="translate(130,57)"/>
<path d="M0 0 C2.97 0 5.94 0 9 0 C9 0.66 9 1.32 9 2 C11.64 2 14.28 2 17 2 C17 2.66 17 3.32 17 4 C18.65 4 20.3 4 22 4 C22 4.33 22 4.66 22 5 C14.17509977 5.62599202 7.39062767 3.32514129 0 1 C0 0.67 0 0.34 0 0 Z " fill="#C8746B" transform="translate(63,215)"/>
<path d="M0 0 C2.86697492 1.28519565 4.97607712 2.57129254 7 5 C7 5.66 7 6.32 7 7 C7.61875 7.2475 8.2375 7.495 8.875 7.75 C11.35068687 9.20628639 11.95125002 10.37812506 13 13 C7.79064738 10.57891321 3.16609728 7.33219457 0.5625 2.125 C0.376875 1.42375 0.19125 0.7225 0 0 Z " fill="#C8756D" transform="translate(621,168)"/>
<path d="M0 0 C0.33 0.66 0.66 1.32 1 2 C1.99 2.66 2.98 3.32 4 4 C0.79937313 5.60031344 -1.72271806 4.03173691 -5 3 C-5 2.34 -5 1.68 -5 1 C-2 0 -2 0 0 0 Z M-5 3 C-5.66 4.32 -6.32 5.64 -7 7 C-8.65 7 -10.3 7 -12 7 C-12 6.34 -12 5.68 -12 5 C-9 3 -9 3 -5 3 Z " fill="#BC3A29" transform="translate(364,171)"/>
<path d="M0 0 C-0.92961422 1.15224028 -1.8690125 2.29659176 -2.8125 3.4375 C-3.59560547 4.39462891 -3.59560547 4.39462891 -4.39453125 5.37109375 C-6 7 -6 7 -9 8 C-9 5.36 -9 2.72 -9 0 C-5.93109813 -1.53445094 -3.29905734 -0.54984289 0 0 Z " fill="#C45E53" transform="translate(811,172)"/>
<path d="M0 0 C2.04159095 -0.0272616 4.08328963 -0.04651345 6.125 -0.0625 C7.26195313 -0.07410156 8.39890625 -0.08570312 9.5703125 -0.09765625 C12.81692752 -0.00521277 15.80955995 0.42608231 19 1 C19.99 1 20.98 1 22 1 C21.67 1.99 21.34 2.98 21 4 C17.70042515 5.39299748 16.85822055 4.94713309 13.3125 3.625 C12.62800781 3.34269531 11.94351563 3.06039062 11.23828125 2.76953125 C7.57807005 1.51113403 3.84285483 1.25796942 0 1 C0 0.67 0 0.34 0 0 Z " fill="#C86C63" transform="translate(93,90)"/>
<path d="M0 0 C-0.99 1.485 -0.99 1.485 -2 3 C-4.32249342 3.40197001 -6.65885633 3.72686657 -9 4 C-10.60875 4.556875 -10.60875 4.556875 -12.25 5.125 C-15 6 -15 6 -18 5 C-16.56328432 4.35242375 -15.12559584 3.70700547 -13.6875 3.0625 C-12.88699219 2.70285156 -12.08648438 2.34320313 -11.26171875 1.97265625 C-7.29846487 0.26825173 -4.29254481 -0.09538988 0 0 Z " fill="#C3685C" transform="translate(654,78)"/>
<path d="M0 0 C1.32 0.33 2.64 0.66 4 1 C3.01 1 2.02 1 1 1 C1 2.32 1 3.64 1 5 C0.34 5 -0.32 5 -1 5 C-1.12375 5.7425 -1.2475 6.485 -1.375 7.25 C-1.95486701 9.80141485 -2.73708739 11.7267573 -4 14 C-4.66 14 -5.32 14 -6 14 C-6.33 14.99 -6.66 15.98 -7 17 C-7.99 16.67 -8.98 16.34 -10 16 C-9.41992188 15.27296875 -9.41992188 15.27296875 -8.828125 14.53125 C-5.22058046 9.88787584 -2.47597386 5.33286677 0 0 Z " fill="#DA9F96" transform="translate(800,151)"/>
<path d="M0 0 C3.14869113 0.61114587 6.29329435 1.24121444 9.4375 1.875 C10.78424805 2.13603516 10.78424805 2.13603516 12.15820312 2.40234375 C13.43920898 2.66337891 13.43920898 2.66337891 14.74609375 2.9296875 C15.93223267 3.16534424 15.93223267 3.16534424 17.14233398 3.40576172 C17.75536377 3.60186035 18.36839355 3.79795898 19 4 C19.33 4.66 19.66 5.32 20 6 C12.91911475 6.30131427 6.30470733 5.38717911 0 2 C0 1.34 0 0.68 0 0 Z " fill="#C97873" transform="translate(68,196)"/>
<path d="M0 0 C0.33 0 0.66 0 1 0 C1.14695312 0.92619141 1.14695312 0.92619141 1.296875 1.87109375 C2.26936599 7.37908152 3.70329805 12.07853001 6.1953125 17.08984375 C7 19 7 19 7 22 C4.525 21.01 4.525 21.01 2 20 C1.93941406 19.38511719 1.87882812 18.77023438 1.81640625 18.13671875 C1.73261719 17.32847656 1.64882813 16.52023438 1.5625 15.6875 C1.48128906 14.88699219 1.40007812 14.08648437 1.31640625 13.26171875 C1.04734307 10.83912821 1.04734307 10.83912821 0 8 C-0.12781786 5.32605036 -0.04391871 2.67904143 0 0 Z " fill="#D07E75" transform="translate(345,140)"/>
<path d="M0 0 C4.8359375 1.75 4.8359375 1.75 6.3125 4 C7 6 7 6 7 8 C7.66 8 8.32 8 9 8 C9.96070434 10.88211302 10.10581883 12.69850044 10.0625 15.6875 C10.05347656 16.49574219 10.04445313 17.30398437 10.03515625 18.13671875 C10.02355469 18.75160156 10.01195313 19.36648437 10 20 C9.67 20 9.34 20 9 20 C8.77957031 18.96552734 8.77957031 18.96552734 8.5546875 17.91015625 C6.8823941 10.90382355 4.36295868 5.71844099 0 0 Z " fill="#CE7F76" transform="translate(112,95)"/>
<path d="M0 0 C0.66 0 1.32 0 2 0 C1.34 5.61 0.68 11.22 0 17 C-0.66 17 -1.32 17 -2 17 C-2.05418326 14.91695462 -2.09287551 12.83350232 -2.125 10.75 C-2.14820313 9.58984375 -2.17140625 8.4296875 -2.1953125 7.234375 C-2.0103949 4.17213954 -1.60823023 2.55797249 0 0 Z " fill="#C7746D" transform="translate(241,108)"/>
<path d="M0 0 C9.58317155 -0.35347764 17.76200185 0.10990002 27 3 C27 3.33 27 3.66 27 4 C20.84765625 4.09765625 20.84765625 4.09765625 19 4 C18.67 3.67 18.34 3.34 18 3 C16.66197814 2.77486899 15.31426977 2.60639193 13.96484375 2.46484375 C13.15595703 2.37783203 12.34707031 2.29082031 11.51367188 2.20117188 C10.66353516 2.11416016 9.81339844 2.02714844 8.9375 1.9375 C8.08349609 1.84662109 7.22949219 1.75574219 6.34960938 1.66210938 C4.23348465 1.43749278 2.11679106 1.21824773 0 1 C0 0.67 0 0.34 0 0 Z " fill="#D49490" transform="translate(654,77)"/>
<path d="M0 0 C3.8841813 5.82627195 4.46294443 12.17156971 4 19 C3.34 19.99 2.68 20.98 2 22 C1.34 14.74 0.68 7.48 0 0 Z " fill="#C5766B" transform="translate(705,106)"/>
<path d="M0 0 C1.72863281 0.02707031 1.72863281 0.02707031 3.4921875 0.0546875 C4.36101563 0.07789062 5.22984375 0.10109375 6.125 0.125 C6.125 0.455 6.125 0.785 6.125 1.125 C4.80435547 1.28935547 4.80435547 1.28935547 3.45703125 1.45703125 C2.29558594 1.61558594 1.13414062 1.77414063 -0.0625 1.9375 C-1.21105469 2.08832031 -2.35960937 2.23914063 -3.54296875 2.39453125 C-6.90662721 3.13193352 -9.01393328 4.27013437 -11.875 6.125 C-12.535 6.125 -13.195 6.125 -13.875 6.125 C-13.75 4.25 -13.75 4.25 -12.875 2.125 C-8.48584134 0.243932 -4.74142174 -0.09676371 0 0 Z " fill="#C8736A" transform="translate(545.875,91.875)"/>
<path d="M0 0 C0.33 0.66 0.66 1.32 1 2 C0.67 2.99 0.34 3.98 0 5 C-0.99 5 -1.98 5 -3 5 C-3.33 5.99 -3.66 6.98 -4 8 C-4.99 8.33 -5.98 8.66 -7 9 C-7.99 10.485 -7.99 10.485 -9 12 C-11.475 11.01 -11.475 11.01 -14 10 C-11 8 -11 8 -7.5625 6.125 C-4.57433144 4.44098975 -2.29992784 2.57591918 0 0 Z " fill="#CF7F78" transform="translate(570,203)"/>
<path d="M0 0 C0.99 0.33 1.98 0.66 3 1 C2.60167969 1.85271484 2.60167969 1.85271484 2.1953125 2.72265625 C0.04115794 7.43192114 -1.71888799 11.98231131 -3 17 C-3.33 17 -3.66 17 -4 17 C-3.85879286 15.06215735 -3.71187127 13.12473045 -3.5625 11.1875 C-3.48128906 10.10855469 -3.40007812 9.02960938 -3.31640625 7.91796875 C-3 5 -3 5 -2 2 C-1.34 2 -0.68 2 0 2 C0 1.34 0 0.68 0 0 Z " fill="#C9726A" transform="translate(71,103)"/>
<path d="M0 0 C0.66 0 1.32 0 2 0 C0.59155282 3.21524305 -1.10344786 5.32183868 -3.625 7.75 C-4.57246094 8.67039062 -4.57246094 8.67039062 -5.5390625 9.609375 C-6.02117188 10.06828125 -6.50328125 10.5271875 -7 11 C-7.33 10.01 -7.66 9.02 -8 8 C-7.34 8 -6.68 8 -6 8 C-6 6.02 -6 4.04 -6 2 C-4.02 2 -2.04 2 0 2 C0 1.34 0 0.68 0 0 Z " fill="#C66059" transform="translate(912,87)"/>
<path d="M0 0 C0.5775 0.37125 1.155 0.7425 1.75 1.125 C0.96625 1.41375 0.1825 1.7025 -0.625 2 C-3.34671632 2.97412254 -3.34671632 2.97412254 -5.25 5.125 C-5.930625 5.269375 -6.61125 5.41375 -7.3125 5.5625 C-8.2715625 5.8409375 -8.2715625 5.8409375 -9.25 6.125 C-9.58 7.115 -9.91 8.105 -10.25 9.125 C-11.57 8.795 -12.89 8.465 -14.25 8.125 C-13.00482035 6.99466702 -11.75363348 5.87094964 -10.5 4.75 C-9.80390625 4.12351562 -9.1078125 3.49703125 -8.390625 2.8515625 C-3.27578019 -1.27391452 -3.27578019 -1.27391452 0 0 Z " fill="#C87670" transform="translate(78.25,81.875)"/>
<path d="M0 0 C1.48693359 0.24556641 1.48693359 0.24556641 3.00390625 0.49609375 C6.99354579 1.06604226 10.90621941 1.09817505 14.9375 1.0625 C15.62134766 1.05798828 16.30519531 1.05347656 17.00976562 1.04882812 C18.67321604 1.0371956 20.3366205 1.01926694 22 1 C22 1.66 22 2.32 22 3 C15.07 3 8.14 3 1 3 C0.67 2.01 0.34 1.02 0 0 Z " fill="#CA7F79" transform="translate(364,171)"/>
<path d="M0 0 C5.75 0.875 5.75 0.875 8 2 C7.34 4.31 6.68 6.62 6 9 C2.91910327 6.22719294 1.31224548 3.93673644 0 0 Z " fill="#C6635A" transform="translate(877,144)"/>
<path d="M0 0 C0.66 0.33 1.32 0.66 2 1 C1.98259766 1.95712891 1.98259766 1.95712891 1.96484375 2.93359375 C1.95582031 3.75988281 1.94679687 4.58617187 1.9375 5.4375 C1.92589844 6.26121094 1.91429687 7.08492187 1.90234375 7.93359375 C1.76732652 9.99163938 1.76732652 9.99163938 3 11 C3.04063832 12.66617115 3.042721 14.33388095 3 16 C0.03170553 12.6269381 -1.06350475 9.37031116 -2 5 C-1.54545455 1.54545455 -1.54545455 1.54545455 0 0 Z " fill="#CA7167" transform="translate(53,143)"/>
<path d="M0 0 C0.66 0 1.32 0 2 0 C1.86722656 0.72445312 1.73445313 1.44890625 1.59765625 2.1953125 C0.69718291 7.12491105 -0.19781966 12.05322123 -1 17 C-1.33 17 -1.66 17 -2 17 C-2.33 12.71 -2.66 8.42 -3 4 C-2.01 3.67 -1.02 3.34 0 3 C0 2.01 0 1.02 0 0 Z " fill="#C8746D" transform="translate(463,105)"/>
<path d="M0 0 C0.99 0.33 1.98 0.66 3 1 C3.33 1.99 3.66 2.98 4 4 C3.0390625 5.82421875 3.0390625 5.82421875 1.625 7.6875 C1.16351562 8.31011719 0.70203125 8.93273437 0.2265625 9.57421875 C-0.17820312 10.04472656 -0.58296875 10.51523438 -1 11 C-1.33 11 -1.66 11 -2 11 C-2.05399736 9.54207116 -2.09279177 8.08357288 -2.125 6.625 C-2.15980469 5.40683594 -2.15980469 5.40683594 -2.1953125 4.1640625 C-2 2 -2 2 0 0 Z " fill="#C44F47" transform="translate(526,97)"/>
<path d="M0 0 C5.94 0 11.88 0 18 0 C18.66 1.65 19.32 3.3 20 5 C13.125 3.125 13.125 3.125 12 2 C9.98405418 1.76572222 7.961526 1.58663876 5.9375 1.4375 C4.83277344 1.35371094 3.72804688 1.26992187 2.58984375 1.18359375 C1.73519531 1.12300781 0.88054687 1.06242187 0 1 C0 0.67 0 0.34 0 0 Z " fill="#BC5D56" transform="translate(261,92)"/>
<path d="M0 0 C0.33 1.32 0.66 2.64 1 4 C0.01 4 -0.98 4 -2 4 C-2.0825 4.598125 -2.165 5.19625 -2.25 5.8125 C-3.22409548 8.65361183 -4.40494247 9.54982079 -7 11 C-7.99 10.67 -8.98 10.34 -10 10 C-6.7 6.7 -3.4 3.4 0 0 Z " fill="#CA736C" transform="translate(155,173)"/>
<path d="M0 0 C0.99 0 1.98 0 3 0 C3 1.32 3 2.64 3 4 C3.61875 4.268125 4.2375 4.53625 4.875 4.8125 C7 6 7 6 9 9 C9.125 11.6875 9.125 11.6875 9 14 C5.15237434 10.5798883 2.39365978 6.53225744 0 2 C0 1.34 0 0.68 0 0 Z " fill="#CB7B75" transform="translate(890,164)"/>
<path d="M0 0 C0.33 0.66 0.66 1.32 1 2 C0.0625 4.125 0.0625 4.125 -1 6 C-1.66 6 -2.32 6 -3 6 C-3.20625 6.61875 -3.4125 7.2375 -3.625 7.875 C-5.54775888 10.84653645 -7.66594527 11.13024659 -11 12 C-11.66 11.34 -12.32 10.68 -13 10 C-11.6696875 9.38125 -11.6696875 9.38125 -10.3125 8.75 C-5.88914799 6.41313479 -2.78389507 4.1758426 0 0 Z " fill="#C9786D" transform="translate(399,161)"/>
<path d="M0 0 C6.27 0.66 12.54 1.32 19 2 C19 2.33 19 2.66 19 3 C12.73855188 3.73597491 7.21213178 4.05738413 1 3 C0.01 3.495 0.01 3.495 -1 4 C-0.67 2.68 -0.34 1.36 0 0 Z " fill="#D0847E" transform="translate(404,151)"/>
<path d="M0 0 C0.33 0.66 0.66 1.32 1 2 C1.66 2 2.32 2 3 2 C3 2.66 3 3.32 3 4 C3.99 4.33 4.98 4.66 6 5 C7.25 6.9375 7.25 6.9375 8 9 C7.67 9.66 7.34 10.32 7 11 C3.66666667 7.66666667 0.33333333 4.33333333 -3 1 C-2.01 0.67 -1.02 0.34 0 0 Z " fill="#CD7E74" transform="translate(145,65)"/>
<path d="M0 0 C-0.33 1.32 -0.66 2.64 -1 4 C-4.96 4 -8.92 4 -13 4 C-4.66666667 -1.55555556 -4.66666667 -1.55555556 0 0 Z " fill="#C96D67" transform="translate(132,194)"/>
<path d="M0 0 C0.33 0 0.66 0 1 0 C1.20496094 0.96421875 1.40992188 1.9284375 1.62109375 2.921875 C1.89050781 4.18515625 2.15992188 5.4484375 2.4375 6.75 C2.70433594 8.00296875 2.97117187 9.2559375 3.24609375 10.546875 C3.7916235 13.04557085 4.35638812 15.52553101 5 18 C2 17 2 17 0.8203125 15.359375 C-0.26518037 12.23729076 -0.19094492 9.54724599 -0.125 6.25 C-0.09792969 4.49429688 -0.09792969 4.49429688 -0.0703125 2.703125 C-0.04710937 1.81109375 -0.02390625 0.9190625 0 0 Z " fill="#CF8178" transform="translate(741,139)"/>
<path d="M0 0 C0.33 0 0.66 0 1 0 C1.33015923 6.7621501 1.37864668 12.02239433 -2 18 C-2.66 18.33 -3.32 18.66 -4 19 C-2.02 9.595 -2.02 9.595 0 0 Z " fill="#CD807B" transform="translate(171,135)"/>
<path d="M0 0 C0.33 0 0.66 0 1 0 C0.67 2.97 0.34 5.94 0 9 C-0.66 9 -1.32 9 -2 9 C-2 9.66 -2 10.32 -2 11 C-2.99 11.33 -3.98 11.66 -5 12 C-4.54738642 10.56068883 -4.08767021 9.12361001 -3.625 7.6875 C-3.24214844 6.48673828 -3.24214844 6.48673828 -2.8515625 5.26171875 C-2 3 -2 3 0 0 Z " fill="#CA736A" transform="translate(334,99)"/>
<path d="M0 0 C0.66 0.33 1.32 0.66 2 1 C1.34 2.32 0.68 3.64 0 5 C-0.66 5 -1.32 5 -2 5 C-2.66 6.32 -3.32 7.64 -4 9 C-4.99 9 -5.98 9 -7 9 C-7 9.66 -7 10.32 -7 11 C-7.66 11 -8.32 11 -9 11 C-7.59155282 7.78475695 -5.89655214 5.67816132 -3.375 3.25 C-2.74335937 2.63640625 -2.11171875 2.0228125 -1.4609375 1.390625 C-0.73777344 0.70226562 -0.73777344 0.70226562 0 0 Z " fill="#CA726C" transform="translate(631,86)"/>
<path d="M0 0 C0.99 0.33 1.98 0.66 3 1 C4.1875 3.5625 4.1875 3.5625 5 6 C0.545 6.495 0.545 6.495 -4 7 C-3.04065919 3.16263678 -2.76390737 2.40339772 0 0 Z " fill="#BF5044" transform="translate(889,89)"/>
<path d="M0 0 C3.94455388 2.07608099 4.91100178 2.82200357 7 7 C4.03 7 1.06 7 -2 7 C-1.34 6.34 -0.68 5.68 0 5 C0 4.01 0 3.02 0 2 C0 1.34 0 0.68 0 0 Z " fill="#C96961" transform="translate(405,87)"/>
<path d="M0 0 C1.32 1.32 2.64 2.64 4 4 C4.66 3.67 5.32 3.34 6 3 C9 6.75 9 6.75 9 9 C5.08788267 7.84414715 2.1254959 6.64465038 -1 4 C-0.67 2.68 -0.34 1.36 0 0 Z " fill="#C47065" transform="translate(120,49)"/>
<path d="M0 0 C2.31 0 4.62 0 7 0 C6.47599609 0.72316406 6.47599609 0.72316406 5.94140625 1.4609375 C5.48636719 2.09257813 5.03132812 2.72421875 4.5625 3.375 C4.11003906 4.00148438 3.65757812 4.62796875 3.19140625 5.2734375 C1.94469283 6.99402639 1.94469283 6.99402639 1 9 C0 8 0 8 -0.09765625 6.15234375 C-0.06510417 4.1015625 -0.03255208 2.05078125 0 0 Z " fill="#CA756B" transform="translate(882,113)"/>
<path d="M0 0 C2.64 0 5.28 0 8 0 C8 0.33 8 0.66 8 1 C6.35 1 4.7 1 3 1 C2.67 2.98 2.34 4.96 2 7 C1.01 7 0.02 7 -1 7 C-1.33 6.01 -1.66 5.02 -2 4 C-2.66 3.67 -3.32 3.34 -4 3 C-2.68 2.67 -1.36 2.34 0 2 C0 1.34 0 0.68 0 0 Z " fill="#BB3A2D" transform="translate(748,83)"/>
<path d="M0 0 C1.4606285 2.64738916 2 3.89448334 2 7 C1.01 7.33 0.02 7.66 -1 8 C-4 3.25 -4 3.25 -4 1 C-2.68 0.67 -1.36 0.34 0 0 Z " fill="#C4564D" transform="translate(732,161)"/>
<path d="M0 0 C0.99 0 1.98 0 3 0 C2.67 3.63 2.34 7.26 2 11 C4.31 11.33 6.62 11.66 9 12 C9 12.33 9 12.66 9 13 C2.84765625 13.09765625 2.84765625 13.09765625 1 13 C0 12 0 12 -0.09765625 9.27734375 C-0.08605469 8.17519531 -0.07445312 7.07304688 -0.0625 5.9375 C-0.05347656 4.83277344 -0.04445313 3.72804688 -0.03515625 2.58984375 C-0.02355469 1.73519531 -0.01195312 0.88054687 0 0 Z " fill="#C2605A" transform="translate(631,112)"/>
<path d="M0 0 C2.31 0 4.62 0 7 0 C7.33 0.66 7.66 1.32 8 2 C9.32 2 10.64 2 12 2 C12 2.66 12 3.32 12 4 C11.34 4 10.68 4 10 4 C9.67 4.99 9.34 5.98 9 7 C8.2575 6.401875 7.515 5.80375 6.75 5.1875 C4.52582236 3.41826778 2.28337765 1.69139085 0 0 Z " fill="#C96E66" transform="translate(782,94)"/>
<path d="M0 0 C-1.98 0.33 -3.96 0.66 -6 1 C-5.67 1.99 -5.34 2.98 -5 4 C-8.3 4.33 -11.6 4.66 -15 5 C-12.36629864 2.36629864 -11.33379748 1.48066086 -8.0625 0.25 C-7.39347656 -0.01296875 -6.72445312 -0.2759375 -6.03515625 -0.546875 C-3.68352509 -1.07046274 -2.26382477 -0.74954377 0 0 Z " fill="#D0857D" transform="translate(538,79)"/>
<path d="M0 0 C1.65 0.33 3.3 0.66 5 1 C3.8125 3.9375 3.8125 3.9375 2 7 C-0.6875 7.875 -0.6875 7.875 -3 8 C-2.37240135 5.07120629 -1.41377341 2.63904371 0 0 Z " fill="#C13829" transform="translate(156,175)"/>
<path d="M0 0 C0.33 0 0.66 0 1 0 C1.35050464 5.841744 1.16727335 9.8531808 -2 15 C-3.31534494 11.34142468 -2.65468309 8.91973519 -1.5625 5.25 C-1.27503906 4.26515625 -0.98757813 3.2803125 -0.69140625 2.265625 C-0.46324219 1.51796875 -0.23507812 0.7703125 0 0 Z " fill="#CB7B74" transform="translate(504,108)"/>
<path d="M0 0 C1.65 0.33 3.3 0.66 5 1 C3.85845641 2.83600745 2.71165684 4.66874805 1.5625 6.5 C0.92441406 7.5209375 0.28632812 8.541875 -0.37109375 9.59375 C-0.90863281 10.3878125 -1.44617188 11.181875 -2 12 C-2.33 12 -2.66 12 -3 12 C-3 10.35 -3 8.7 -3 7 C-2.01 6.67 -1.02 6.34 0 6 C0 4.02 0 2.04 0 0 Z " fill="#CD7570" transform="translate(637,99)"/>
<path d="M0 0 C2.97 0.495 2.97 0.495 6 1 C3.38485683 3.12038635 0.80362384 5.13091744 -2 7 C-2.66 6.01 -3.32 5.02 -4 4 C-3.01 3.67 -2.02 3.34 -1 3 C-0.67 2.01 -0.34 1.02 0 0 Z " fill="#C8655D" transform="translate(752,95)"/>
<path d="M0 0 C1.18771723 3.42943519 0.80226223 5.37784675 -0.4375 8.75 C-0.72496094 9.54921875 -1.01242188 10.3484375 -1.30859375 11.171875 C-1.53675781 11.77515625 -1.76492188 12.3784375 -2 13 C-2.99 13 -3.98 13 -5 13 C-4.39254603 8.14036821 -2.27241033 4.2594482 0 0 Z " fill="#CC7C72" transform="translate(11,80)"/>
<path d="M0 0 C0.53625 0.2475 1.0725 0.495 1.625 0.75 C1.625 1.41 1.625 2.07 1.625 2.75 C-1.015 3.74 -3.655 4.73 -6.375 5.75 C-7.035 5.09 -7.695 4.43 -8.375 3.75 C-2.95961538 -0.31153846 -2.95961538 -0.31153846 0 0 Z " fill="#C65F58" transform="translate(254.375,81.25)"/>
<path d="M0 0 C0 0.66 0 1.32 0 2 C-9.41002278 5.44419134 -9.41002278 5.44419134 -14 5 C-13.01 4.67 -12.02 4.34 -11 4 C-11 3.34 -11 2.68 -11 2 C-9.5422647 1.664061 -8.08378894 1.33133376 -6.625 1 C-5.81289063 0.814375 -5.00078125 0.62875 -4.1640625 0.4375 C-2 0 -2 0 0 0 Z " fill="#C9756E" transform="translate(795,183)"/>
<path d="M0 0 C2 2 2 2 2 6 C0.68 6.33 -0.64 6.66 -2 7 C-2 6.01 -2 5.02 -2 4 C-2.99 3.67 -3.98 3.34 -5 3 C-3 1 -3 1 0 0 Z " fill="#BF4839" transform="translate(797,177)"/>
<path d="M0 0 C0 1.32 0 2.64 0 4 C-4.67201205 5.20568053 -9.21496292 5.09382426 -14 5 C-14 4.67 -14 4.34 -14 4 C-12.7625 3.71125 -11.525 3.4225 -10.25 3.125 C-6.80894357 2.2738553 -3.44453207 0 0 0 Z " fill="#CE7A75" transform="translate(564,166)"/>
<path d="M0 0 C2 2 2 2 2 6 C3.32 5.67 4.64 5.34 6 5 C6 5.99 6 6.98 6 8 C5.34 8 4.68 8 4 8 C4 8.66 4 9.32 4 10 C4.66 10.33 5.32 10.66 6 11 C5.01 11 4.02 11 3 11 C2.30034557 9.73581754 1.61565237 8.46334598 0.9375 7.1875 C0.55464844 6.47980469 0.17179688 5.77210938 -0.22265625 5.04296875 C-1 3 -1 3 0 0 Z " fill="#C96E67" transform="translate(10,165)"/>
<path d="M0 0 C3.25524265 3.02272532 5.61820737 6.25718301 8 10 C7.67 10.66 7.34 11.32 7 12 C4.525 11.01 4.525 11.01 2 10 C2.33 8.35 2.66 6.7 3 5 C2.01 4.67 1.02 4.34 0 4 C0 2.68 0 1.36 0 0 Z " fill="#D2877F" transform="translate(906,155)"/>
<path d="M0 0 C0.66 0.33 1.32 0.66 2 1 C1.01 2.485 1.01 2.485 0 4 C-0.99 4 -1.98 4 -3 4 C-3.2475 4.804375 -3.495 5.60875 -3.75 6.4375 C-5 9 -5 9 -7.125 9.8125 C-7.74375 9.874375 -8.3625 9.93625 -9 10 C-6.43571997 5.82117329 -3.98069267 2.87494471 0 0 Z " fill="#CC8279" transform="translate(521,84)"/>
<path d="M0 0 C1.32 0.66 2.64 1.32 4 2 C-0.625 6.875 -0.625 6.875 -4 8 C-3.50168276 4.31245243 -2.89932357 2.39509338 0 0 Z " fill="#CC6D66" transform="translate(578,215)"/>
<path d="M0 0 C1.14926266 0.95421808 2.29430541 1.91352045 3.4375 2.875 C4.07558594 3.40867188 4.71367188 3.94234375 5.37109375 4.4921875 C7 6 7 6 8 8 C4.62537285 7.45276317 2.91765 6.9451 0 5 C-0.1875 2.375 -0.1875 2.375 0 0 Z " fill="#CA6F67" transform="translate(37,174)"/>
<path d="M0 0 C0.99 0.33 1.98 0.66 3 1 C2.67 2.65 2.34 4.3 2 6 C-1.77545388 4.90931332 -4.47043472 4.0916909 -7 1 C-4.03 1.495 -4.03 1.495 -1 2 C-0.67 1.34 -0.34 0.68 0 0 Z " fill="#C5625A" transform="translate(352,178)"/>
<path d="M0 0 C0.99 0.33 1.98 0.66 3 1 C3.33 1.99 3.66 2.98 4 4 C5.40105576 5.42857119 5.40105576 5.42857119 7.0625 6.6875 C8.031875 7.450625 9.00125 8.21375 10 9 C9.34 9.66 8.68 10.32 8 11 C6.84501103 9.92643323 5.70132133 8.84070212 4.5625 7.75 C3.92441406 7.14671875 3.28632813 6.5434375 2.62890625 5.921875 C0.91483694 3.89951984 0.40641122 2.58729395 0 0 Z " fill="#C8726B" transform="translate(334,166)"/>
<path d="M0 0 C1.29315061 0.95632999 2.58446853 1.91513851 3.875 2.875 C4.59429687 3.40867188 5.31359375 3.94234375 6.0546875 4.4921875 C8 6 8 6 10 8 C8.35 8 6.7 8 5 8 C4.67 7.34 4.34 6.68 4 6 C2.68 6 1.36 6 0 6 C0 4.02 0 2.04 0 0 Z " fill="#CE766D" transform="translate(354,163)"/>
<path d="M0 0 C-3.25852365 2.1723491 -6.59244728 4.07119658 -10 6 C-10.1875 3.625 -10.1875 3.625 -10 1 C-6.1496895 -1.56687367 -4.41430237 -0.83288724 0 0 Z " fill="#CC736A" transform="translate(652,94)"/>
<path d="M0 0 C6.15234375 -0.09765625 6.15234375 -0.09765625 8 0 C9 1 9 1 9.09765625 2.84765625 C9.04882812 5.92382812 9.04882812 5.92382812 9 9 C8.01 9 7.02 9 6 9 C6.33 6.36 6.66 3.72 7 1 C4.69 1 2.38 1 0 1 C0 0.67 0 0.34 0 0 Z " fill="#B95549" transform="translate(514,197)"/>
<path d="M0 0 C0.66 0.99 1.32 1.98 2 3 C-0.05127045 6.9945793 -1.88912162 9.10267152 -6 11 C-6.66 10.67 -7.32 10.34 -8 10 C-7.50628906 9.44570312 -7.01257813 8.89140625 -6.50390625 8.3203125 C-5.86324219 7.59585938 -5.22257813 6.87140625 -4.5625 6.125 C-3.92441406 5.40570313 -3.28632812 4.68640625 -2.62890625 3.9453125 C-0.94985535 2.09249509 -0.94985535 2.09249509 0 0 Z " fill="#CE8178" transform="translate(572,155)"/>
<path d="M0 0 C0.66 0 1.32 0 2 0 C2 0.66 2 1.32 2 2 C2.66 2.33 3.32 2.66 4 3 C1.69 4.98 -0.62 6.96 -3 9 C-3 7.68 -3 6.36 -3 5 C-2.34 5 -1.68 5 -1 5 C-0.67 3.35 -0.34 1.7 0 0 Z " fill="#C96A62" transform="translate(898,98)"/>
<path d="M0 0 C2.48728231 2.91985315 3.71066493 5.14219907 4 9 C3.01171875 11.15625 3.01171875 11.15625 2 13 C1.46605821 11.5882217 0.94834896 10.17029756 0.4375 8.75 C0.14746094 7.96109375 -0.14257812 7.1721875 -0.44140625 6.359375 C-1.04522837 3.80896548 -0.8473932 2.44677771 0 0 Z " fill="#C8726A" transform="translate(167,94)"/>
<path d="M0 0 C2.5 1.3125 2.5 1.3125 5 3 C5 3.99 5 4.98 5 6 C5.66 6.33 6.32 6.66 7 7 C7.625 9.5625 7.625 9.5625 8 12 C5.86088258 9.94870558 4.04262537 7.84304969 2.3125 5.4375 C1.65701172 4.53837891 1.65701172 4.53837891 0.98828125 3.62109375 C0 2 0 2 0 0 Z " fill="#D18680" transform="translate(156,79)"/>
<path d="M0 0 C0.99 0 1.98 0 3 0 C1.50902342 3.7952131 -0.75700849 5.61042731 -4 8 C-4 6.35 -4 4.7 -4 3 C-3.34 3 -2.68 3 -2 3 C-1.67 2.34 -1.34 1.68 -1 1 C-0.67 0.67 -0.34 0.34 0 0 Z " fill="#C66E65" transform="translate(45,66)"/>
<path d="M0 0 C4.61513112 1.31860889 8.09897612 3.21355437 12 6 C10.68 6.33 9.36 6.66 8 7 C8 6.34 8 5.68 8 5 C7.01 5 6.02 5 5 5 C5 4.34 5 3.68 5 3 C4.01 3.33 3.02 3.66 2 4 C1.34 2.68 0.68 1.36 0 0 Z " fill="#CD8278" transform="translate(139,41)"/>
<path d="M0 0 C2.23063517 2.97418022 4.27615616 5.7246967 6 9 C5.67 9.66 5.34 10.32 5 11 C3.68 10.67 2.36 10.34 1 10 C0.67 6.7 0.34 3.4 0 0 Z " fill="#CD817B" transform="translate(26,156)"/>
<path d="M0 0 C1.5 1 1.5 1 3 3 C3.27345479 5.71846235 3.13491285 8.25677199 3 11 C2.34 11 1.68 11 1 11 C-0.28317892 7.15046324 -0.06643637 4.05261865 0 0 Z " fill="#C1635B" transform="translate(328,147)"/>
<path d="M0 0 C3.375 0.3125 3.375 0.3125 7 1 C9 4 9 4 8.625 6.1875 C8.41875 6.785625 8.2125 7.38375 8 8 C7.67 7.01 7.34 6.02 7 5 C6.01 4.67 5.02 4.34 4 4 C4 3.01 4 2.02 4 1 C2.68 0.67 1.36 0.34 0 0 Z " fill="#C7726C" transform="translate(99,0)"/>
<path d="M0 0 C2.64 0.33 5.28 0.66 8 1 C8.33 1.99 8.66 2.98 9 4 C9.99 4.33 10.98 4.66 12 5 C7.43545749 4.45660208 4.0271824 3.20536179 0 1 C0 0.67 0 0.34 0 0 Z " fill="#CE7D74" transform="translate(518,222)"/>
<path d="M0 0 C1.32 0.66 2.64 1.32 4 2 C1.06171403 4.50298434 -1.17902761 5.46930939 -5 6 C-5 5.34 -5 4.68 -5 4 C-4.0409375 3.8453125 -4.0409375 3.8453125 -3.0625 3.6875 C-2.381875 3.460625 -1.70125 3.23375 -1 3 C-0.67 2.01 -0.34 1.02 0 0 Z " fill="#C77167" transform="translate(685,180)"/>
<path d="M0 0 C1.32 0.66 2.64 1.32 4 2 C2.5903653 2.70180531 1.17192359 3.38593958 -0.25 4.0625 C-1.03890625 4.44535156 -1.8278125 4.82820312 -2.640625 5.22265625 C-5.25993522 6.08564091 -6.44855176 5.93045933 -9 5 C-9 4.67 -9 4.34 -9 4 C-7.02 4 -5.04 4 -3 4 C-3 3.34 -3 2.68 -3 2 C-2.01 2 -1.02 2 0 2 C0 1.34 0 0.68 0 0 Z " fill="#C97B6F" transform="translate(564,179)"/>
<path d="M0 0 C2.475 0.495 2.475 0.495 5 1 C5.33 1.99 5.66 2.98 6 4 C8.01508358 4.73323796 8.01508358 4.73323796 10 5 C9.34 5 8.68 5 8 5 C7.67 5.66 7.34 6.32 7 7 C5.83040013 6.02433888 4.66438823 5.044375 3.5 4.0625 C2.8503125 3.51722656 2.200625 2.97195312 1.53125 2.41015625 C1.0259375 1.94480469 0.520625 1.47945312 0 1 C0 0.67 0 0.34 0 0 Z " fill="#CB7870" transform="translate(61,168)"/>
<path d="M0 0 C0.66 0 1.32 0 2 0 C0.74194623 4.50802601 -0.90407165 7.4912812 -4 11 C-4 9.68 -4 8.36 -4 7 C-3.34 7 -2.68 7 -2 7 C-2.33 5.35 -2.66 3.7 -3 2 C-2.01 2 -1.02 2 0 2 C0 1.34 0 0.68 0 0 Z " fill="#CA7973" transform="translate(815,161)"/>
<path d="M0 0 C0.33 1.32 0.66 2.64 1 4 C-1.12055614 7.1808342 -2.63050557 8.31525278 -6 10 C-6.66 9.67 -7.32 9.34 -8 9 C-5.36 6.03 -2.72 3.06 0 0 Z " fill="#D5918A" transform="translate(686,159)"/>
<path d="M0 0 C1.9375 0.6875 1.9375 0.6875 4 2 C4.75 4.625 4.75 4.625 5 7 C5.66 7 6.32 7 7 7 C6.67 8.32 6.34 9.64 6 11 C4.9944239 9.54550599 3.99569565 8.08627557 3 6.625 C2.443125 5.81289062 1.88625 5.00078125 1.3125 4.1640625 C0 2 0 2 0 0 Z " fill="#CC8076" transform="translate(883,153)"/>
<path d="M0 0 C1.65 0 3.3 0 5 0 C4.04578192 1.14926266 3.08647955 2.29430541 2.125 3.4375 C1.59132813 4.07558594 1.05765625 4.71367187 0.5078125 5.37109375 C-1 7 -1 7 -3 8 C-3 6.68 -3 5.36 -3 4 C-2.01 4 -1.02 4 0 4 C0 2.68 0 1.36 0 0 Z " fill="#C6645D" transform="translate(860,136)"/>
<path d="M0 0 C0.66 0.33 1.32 0.66 2 1 C1.34 5.29 0.68 9.58 0 14 C-0.33 14 -0.66 14 -1 14 C-1.02694851 12.04174127 -1.04637218 10.08337774 -1.0625 8.125 C-1.07410156 7.03445312 -1.08570313 5.94390625 -1.09765625 4.8203125 C-1 2 -1 2 0 0 Z " fill="#CA6F6A" transform="translate(520,112)"/>
<path d="M0 0 C0.66 0.66 1.32 1.32 2 2 C1.67 2.99 1.34 3.98 1 5 C0.34 5 -0.32 5 -1 5 C-2.62514468 6.45833358 -2.62514468 6.45833358 -4 8 C-4.66 7.34 -5.32 6.68 -6 6 C-4.02 4.02 -2.04 2.04 0 0 Z " fill="#CC6862" transform="translate(884,94)"/>
<path d="M0 0 C-0.33 1.32 -0.66 2.64 -1 4 C-1.99 4 -2.98 4 -4 4 C-4.33 5.65 -4.66 7.3 -5 9 C-5.99 8.67 -6.98 8.34 -8 8 C-6.48291727 4.46014029 -4.24676932 0 0 0 Z " fill="#CD8076" transform="translate(742,87)"/>
<path d="M0 0 C0.66 0.99 1.32 1.98 2 3 C-3.28 2.67 -8.56 2.34 -14 2 C-14 1.67 -14 1.34 -14 1 C-2.91123779 -0.35287731 -2.91123779 -0.35287731 0 0 Z " fill="#CF8780" transform="translate(384,91)"/>
<path d="M0 0 C0.66 0.33 1.32 0.66 2 1 C1.835 1.61875 1.67 2.2375 1.5 2.875 C0.92365356 4.96063386 0.92365356 4.96063386 1 7 C1.66 7.33 2.32 7.66 3 8 C0 8 0 8 -3 7 C-2.25 2.25 -2.25 2.25 0 0 Z " fill="#C76E65" transform="translate(244,86)"/>
<path d="M0 0 C5.57142857 5.14285714 5.57142857 5.14285714 6 9 C5.01 8.67 4.02 8.34 3 8 C3 7.34 3 6.68 3 6 C2.01 6 1.02 6 0 6 C0 4.02 0 2.04 0 0 Z " fill="#C9746E" transform="translate(173,69)"/>
<path d="M0 0 C-0.33 0.99 -0.66 1.98 -1 3 C-3.5625 4.1875 -3.5625 4.1875 -6 5 C-6 4.01 -6 3.02 -6 2 C-6.66 1.67 -7.32 1.34 -8 1 C-5.29120665 -0.35439668 -2.99066732 -0.06501451 0 0 Z " fill="#C55E59" transform="translate(406,179)"/>
<path d="M0 0 C4.29 0.99 8.58 1.98 13 3 C13 3.33 13 3.66 13 4 C7.52667068 5.46845421 4.88077452 4.44038726 0 2 C0 1.34 0 0.68 0 0 Z " fill="#D28A7F" transform="translate(534,167)"/>
<path d="M0 0 C0.99 0 1.98 0 3 0 C2.33501617 4.38889325 0.81242323 7.9811485 -1 12 C-1.33 12 -1.66 12 -2 12 C-2 10.35 -2 8.7 -2 7 C-1.34 7 -0.68 7 0 7 C0 4.69 0 2.38 0 0 Z " fill="#CB817B" transform="translate(420,155)"/>
<path d="M0 0 C3.0916909 2.52956528 3.90931332 5.22454612 5 9 C3.68 9 2.36 9 1 9 C-0.06546953 5.8035914 -0.07427838 3.34252724 0 0 Z " fill="#CA736C" transform="translate(700,97)"/>
<path d="M0 0 C0.66 1.32 1.32 2.64 2 4 C0.68 4.99 -0.64 5.98 -2 7 C-2.33 6.67 -2.66 6.34 -3 6 C-3.66 6.66 -4.32 7.32 -5 8 C-4.67 6.35 -4.34 4.7 -4 3 C-3.01 2.67 -2.02 2.34 -1 2 C-0.67 1.34 -0.34 0.68 0 0 Z " fill="#BD3829" transform="translate(742,88)"/>
<path d="M0 0 C1.32 0.66 2.64 1.32 4 2 C3.34 2.66 2.68 3.32 2 4 C-0.625 3.625 -0.625 3.625 -3 3 C-3 3.66 -3 4.32 -3 5 C-3.99 4.67 -4.98 4.34 -6 4 C-5.01 3.01 -4.02 2.02 -3 1 C-2.01 1.33 -1.02 1.66 0 2 C0 1.34 0 0.68 0 0 Z " fill="#C15046" transform="translate(567,176)"/>
<path d="M0 0 C1.67542976 0.28604898 3.34385343 0.61781233 5 1 C3.625 3.5 3.625 3.5 2 6 C1.34 6 0.68 6 0 6 C-0.38218767 4.34385343 -0.71395102 2.67542976 -1 1 C-0.67 0.67 -0.34 0.34 0 0 Z " fill="#C55E56" transform="translate(571,171)"/>
<path d="M0 0 C7.425 0.99 7.425 0.99 15 2 C15 2.33 15 2.66 15 3 C12.87506859 3.02693575 10.75004088 3.04636628 8.625 3.0625 C7.44164063 3.07410156 6.25828125 3.08570313 5.0390625 3.09765625 C2 3 2 3 0 2 C0 1.34 0 0.68 0 0 Z " fill="#D98F8A" transform="translate(85,166)"/>
<path d="M0 0 C3.11223313 4.14964417 3.52003578 6.00837213 4 11 C3.01 10.67 2.02 10.34 1 10 C0.67 6.7 0.34 3.4 0 0 Z " fill="#CE7D75" transform="translate(303,93)"/>
<path d="M0 0 C0.99386719 0.00902344 1.98773438 0.01804687 3.01171875 0.02734375 C4.15060547 0.04474609 4.15060547 0.04474609 5.3125 0.0625 C5.3125 0.3925 5.3125 0.7225 5.3125 1.0625 C4.55324219 1.19527344 3.79398437 1.32804687 3.01171875 1.46484375 C2.01785156 1.64144531 1.02398437 1.81804687 0 2 C-0.98613281 2.17402344 -1.97226562 2.34804687 -2.98828125 2.52734375 C-5.76939213 3.01996847 -5.76939213 3.01996847 -8.6875 4.0625 C-8.6875 3.0725 -8.6875 2.0825 -8.6875 1.0625 C-5.53819107 0.01273036 -3.29935544 -0.03881595 0 0 Z " fill="#D7918B" transform="translate(478.6875,95.9375)"/>
<path d="M0 0 C0.75 1.6875 0.75 1.6875 1 4 C-0.9375 6.75 -0.9375 6.75 -3 9 C-3.66 8.67 -4.32 8.34 -5 8 C-3.8141763 4.62496331 -2.72426311 2.35277269 0 0 Z " fill="#C9756C" transform="translate(340,91)"/>
<path d="M0 0 C1.98 1.65 3.96 3.3 6 5 C5.67 5.66 5.34 6.32 5 7 C3.68 6.67 2.36 6.34 1 6 C0.67 4.02 0.34 2.04 0 0 Z " fill="#CD7C74" transform="translate(124,85)"/>
<path d="M0 0 C1.98 0.66 3.96 1.32 6 2 C6 2.99 6 3.98 6 5 C4.68 5.33 3.36 5.66 2 6 C0 3 0 3 0 0 Z " fill="#CA7065" transform="translate(681,81)"/>
<path d="M0 0 C5.75 1.75 5.75 1.75 8 4 C5.6875 4.6875 5.6875 4.6875 3 5 C1.1875 3.6875 1.1875 3.6875 0 2 C0 1.34 0 0.68 0 0 Z " fill="#C4695F" transform="translate(287,80)"/>
<path d="M0 0 C-3.1254959 2.64465038 -6.08788267 3.84414715 -10 5 C-9.67 3.68 -9.34 2.36 -9 1 C-5.92677456 0.08941469 -3.19902639 -0.08886184 0 0 Z " fill="#CC7C75" transform="translate(69,55)"/>
<path d="M0 0 C1.32 0 2.64 0 4 0 C4 0.66 4 1.32 4 2 C4.94875 1.938125 5.8975 1.87625 6.875 1.8125 C7.90625 1.874375 8.9375 1.93625 10 2 C10.99 3.485 10.99 3.485 12 5 C9.15321219 5 6.77480587 4.56919095 4 4 C3.34 4 2.68 4 2 4 C2 3.34 2 2.68 2 2 C1.34 1.34 0.68 0.68 0 0 Z " fill="#C65A50" transform="translate(143,46)"/>
<path d="M0 0 C0 0.66 0 1.32 0 2 C-0.66 2.66 -1.32 3.32 -2 4 C-2 4.33 -2 4.66 -2 5 C-4.31 5 -6.62 5 -9 5 C-6.45523312 2.20075644 -3.92372883 0 0 0 Z " fill="#C87569" transform="translate(55,40)"/>
<path d="M0 0 C-0.99 0.66 -1.98 1.32 -3 2 C-2.34 2.33 -1.68 2.66 -1 3 C-3.31 3.33 -5.62 3.66 -8 4 C-5.97675095 -0.48005146 -4.79569304 -1.43870791 0 0 Z " fill="#C86760" transform="translate(97,1)"/>
<path d="M0 0 C0.99 0.33 1.98 0.66 3 1 C2.34 1 1.68 1 1 1 C1.33 1.99 1.66 2.98 2 4 C-0.375 5.5625 -0.375 5.5625 -3 7 C-3.66 6.67 -4.32 6.34 -5 6 C-4.67 5.01 -4.34 4.02 -4 3 C-2.68 3 -1.36 3 0 3 C0 2.01 0 1.02 0 0 Z " fill="#C97369" transform="translate(144,204)"/>
<path d="M0 0 C1.32 0 2.64 0 4 0 C4 0.66 4 1.32 4 2 C3.01 2 2.02 2 1 2 C1 2.99 1 3.98 1 5 C0.34 5 -0.32 5 -1 5 C-1 5.99 -1 6.98 -1 8 C-1.66 8 -2.32 8 -3 8 C-1.125 1.125 -1.125 1.125 0 0 Z " fill="#CB8179" transform="translate(690,151)"/>
<path d="M0 0 C1.32 0.66 2.64 1.32 4 2 C4 2.99 4 3.98 4 5 C2.35 5.33 0.7 5.66 -1 6 C-1.33 5.01 -1.66 4.02 -2 3 C-1.34 2.01 -0.68 1.02 0 0 Z " fill="#C7685E" transform="translate(168,64)"/>
<path d="M0 0 C1.65 0 3.3 0 5 0 C5 0.66 5 1.32 5 2 C0.56923077 4.09230769 0.56923077 4.09230769 -2.3125 3.625 C-2.869375 3.41875 -3.42625 3.2125 -4 3 C-2.68 2.67 -1.36 2.34 0 2 C0 1.34 0 0.68 0 0 Z " fill="#C6726B" transform="translate(394,183)"/>
<path d="M0 0 C0.66 0.33 1.32 0.66 2 1 C1.34 2.32 0.68 3.64 0 5 C-1.98 5 -3.96 5 -6 5 C-5.34 4.67 -4.68 4.34 -4 4 C-4 3.34 -4 2.68 -4 2 C-2.125 0.9375 -2.125 0.9375 0 0 Z " fill="#C96B67" transform="translate(676,169)"/>
<path d="M0 0 C2.5363613 1.01454452 3.79351461 1.6853556 5.3125 4 C5.539375 4.66 5.76625 5.32 6 6 C5.67 6.66 5.34 7.32 5 8 C0 2.25 0 2.25 0 0 Z " fill="#CD8479" transform="translate(621,168)"/>
<path d="M0 0 C0.99 0.33 1.98 0.66 3 1 C1.02 3.31 -0.96 5.62 -3 8 C-3.33 6.68 -3.66 5.36 -4 4 C-3.01 4 -2.02 4 -1 4 C-0.67 2.68 -0.34 1.36 0 0 Z " fill="#C97E73" transform="translate(414,169)"/>
<path d="M0 0 C2.50298434 2.93828597 3.46930939 5.17902761 4 9 C2.68 8.67 1.36 8.34 0 8 C0 5.36 0 2.72 0 0 Z " fill="#CE7D75" transform="translate(813,101)"/>
<path d="M0 0 C2.56616632 3.84924948 2.55097676 6.4349304 3 11 C2.34 11 1.68 11 1 11 C-0.28317892 7.15046324 -0.06643637 4.05261865 0 0 Z " fill="#CD796F" transform="translate(187,95)"/>
<path d="M0 0 C-0.33 0.99 -0.66 1.98 -1 3 C-3.64 3.33 -6.28 3.66 -9 4 C-6.19632015 0.92930303 -4.26207314 0 0 0 Z " fill="#CC7874" transform="translate(645,80)"/>
<path d="M0 0 C-1.125 1.5 -1.125 1.5 -3 3 C-6.1875 3.1875 -6.1875 3.1875 -9 3 C-9 2.34 -9 1.68 -9 1 C-6.04335481 -0.4783226 -3.25770263 -0.06032783 0 0 Z " fill="#BF5952" transform="translate(363,80)"/>
<path d="M0 0 C1 2 1 2 0.0625 5.125 C-0.288125 6.07375 -0.63875 7.0225 -1 8 C-1.99 7.67 -2.98 7.34 -4 7 C-2.92598892 4.08482708 -2.22189824 2.22189824 0 0 Z " fill="#CA6B64" transform="translate(19,68)"/>
<path d="M0 0 C0.99 0.33 1.98 0.66 3 1 C0.42215154 3.64752004 -1.91648098 5.94432065 -5 8 C-5 4 -5 4 -2.6875 1.6875 C-1.800625 1.130625 -0.91375 0.57375 0 0 Z " fill="#BB3B28" transform="translate(39,64)"/>
<path d="M0 0 C2.4375 1.1875 2.4375 1.1875 5 3 C5.8125 5.6875 5.8125 5.6875 6 8 C1.125 3.375 1.125 3.375 0 0 Z " fill="#CC8279" transform="translate(15,177)"/>
<path d="M0 0 C0.66 2.97 1.32 5.94 2 9 C1.01 9 0.02 9 -1 9 C-1.144375 8.05125 -1.28875 7.1025 -1.4375 6.125 C-1.82935399 3.1065506 -1.82935399 3.1065506 -3 1 C-1 0 -1 0 0 0 Z " fill="#C3544B" transform="translate(900,171)"/>
<path d="M0 0 C0.66 0 1.32 0 2 0 C1.67 1.32 1.34 2.64 1 4 C0.34 4 -0.32 4 -1 4 C-1.33 4.99 -1.66 5.98 -2 7 C-2.99 6.67 -3.98 6.34 -5 6 C-3.38405168 3.95880212 -1.7143618 1.95927063 0 0 Z " fill="#C6766B" transform="translate(795,161)"/>
<path d="M0 0 C3.08089673 2.77280706 4.68775452 5.06326356 6 9 C3.525 8.01 3.525 8.01 1 7 C0.67 4.69 0.34 2.38 0 0 Z " fill="#D28B85" transform="translate(892,134)"/>
<path d="M0 0 C0.99 0.66 1.98 1.32 3 2 C2.19152271 3.16945792 1.37810888 4.33550461 0.5625 5.5 C0.11003906 6.1496875 -0.34242188 6.799375 -0.80859375 7.46875 C-1.20175781 7.9740625 -1.59492188 8.479375 -2 9 C-2.33 9 -2.66 9 -3 9 C-3 7.35 -3 5.7 -3 4 C-2.34 4 -1.68 4 -1 4 C-0.67 2.68 -0.34 1.36 0 0 Z " fill="#CE7C71" transform="translate(246,99)"/>
<path d="M0 0 C0.33 0.66 0.66 1.32 1 2 C1.99 2.33 2.98 2.66 4 3 C-0.43076923 5.09230769 -0.43076923 5.09230769 -3.3125 4.625 C-3.869375 4.41875 -4.42625 4.2125 -5 4 C-5 3.34 -5 2.68 -5 2 C-3.68 2 -2.36 2 -1 2 C-0.67 1.34 -0.34 0.68 0 0 Z " fill="#C1463B" transform="translate(240,91)"/>
<path d="M0 0 C0.99 0.33 1.98 0.66 3 1 C1.25 6.75 1.25 6.75 -1 9 C-0.67 6.03 -0.34 3.06 0 0 Z " fill="#D3827C" transform="translate(27,87)"/>
<path d="M0 0 C3.36720387 1.39332574 4.9859524 2.9789286 7 6 C6.01 6 5.02 6 4 6 C3.67 5.01 3.34 4.02 3 3 C2.01 3.33 1.02 3.66 0 4 C0 2.68 0 1.36 0 0 Z " fill="#CB7670" transform="translate(688,85)"/>
<path d="M0 0 C0.99 0.33 1.98 0.66 3 1 C1.69593116 3.01920337 0.36176581 5.01924973 -1 7 C-1.33 7 -1.66 7 -2 7 C-2 5.02 -2 3.04 -2 1 C-1.34 0.67 -0.68 0.34 0 0 Z " fill="#C9796E" transform="translate(173,179)"/>
<path d="M0 0 C0.99 0.33 1.98 0.66 3 1 C4.25 3.9375 4.25 3.9375 5 7 C4.67 7.66 4.34 8.32 4 9 C0 2.25 0 2.25 0 0 Z " fill="#CE7D76" transform="translate(616,159)"/>
<path d="M0 0 C2.3773161 2.3773161 2.67028521 3.70285207 3 7 C2.34 7.66 1.68 8.32 1 9 C0 8 0 8 -0.09765625 6.15234375 C-0.06510417 4.1015625 -0.03255208 2.05078125 0 0 Z " fill="#CC6D64" transform="translate(69,147)"/>
<path d="M0 0 C0.625 1.875 0.625 1.875 1 4 C0.34 4.66 -0.32 5.32 -1 6 C-3.125 5.625 -3.125 5.625 -5 5 C-3.35 3.35 -1.7 1.7 0 0 Z " fill="#CF7D75" transform="translate(873,105)"/>
<path d="M0 0 C2 2 2 2 2 5 C2.99 4.67 3.98 4.34 5 4 C4.67 5.32 4.34 6.64 4 8 C1 7 1 7 -0.25 4.5625 C-1 2 -1 2 0 0 Z " fill="#C9574B" transform="translate(506,103)"/>
<path d="M0 0 C0.99 0.33 1.98 0.66 3 1 C1.515 4.465 1.515 4.465 0 8 C-0.33 8 -0.66 8 -1 8 C-1.04241723 5.66705225 -1.04092937 3.33297433 -1 1 C-0.67 0.67 -0.34 0.34 0 0 Z " fill="#CD7A75" transform="translate(349,104)"/>
<path d="M0 0 C0 1.32 0 2.64 0 4 C-2.64 3.34 -5.28 2.68 -8 2 C-4.77208445 -0.1519437 -3.71599191 -0.20086443 0 0 Z " fill="#CB6E67" transform="translate(561,92)"/>
<path d="M0 0 C5.75 1.625 5.75 1.625 8 5 C5 5 5 5 3 4 C3 3.34 3 2.68 3 2 C1.68 1.67 0.36 1.34 -1 1 C-0.67 0.67 -0.34 0.34 0 0 Z " fill="#CB7E78" transform="translate(115,80)"/>
<path d="M0 0 C1.98 0 3.96 0 6 0 C6 0.66 6 1.32 6 2 C3.69 2.33 1.38 2.66 -1 3 C-0.67 2.01 -0.34 1.02 0 0 Z " fill="#C76B5F" transform="translate(560,225)"/>
<path d="M0 0 C0.66 0 1.32 0 2 0 C3.60725635 3.21451269 3.05748185 6.43612536 3 10 C1.11608215 6.73454239 0.50712033 3.71888239 0 0 Z " fill="#D28D85" transform="translate(573,109)"/>
<path d="M0 0 C-2.97 2.475 -2.97 2.475 -6 5 C-6 3.35 -6 1.7 -6 0 C-3 -1 -3 -1 0 0 Z " fill="#CC8176" transform="translate(895,108)"/>
<path d="M0 0 C0.6875 1.6875 0.6875 1.6875 1 4 C-0.3125 6.75 -0.3125 6.75 -2 9 C-2.66 9 -3.32 9 -4 9 C-2.94124926 5.59687262 -1.99097846 2.98646769 0 0 Z " fill="#CD7670" transform="translate(621,97)"/>
<path d="M0 0 C0.66 0.33 1.32 0.66 2 1 C1.25 5.75 1.25 5.75 -1 8 C-1.04241723 5.66705225 -1.04092937 3.33297433 -1 1 C-0.67 0.67 -0.34 0.34 0 0 Z " fill="#C6645A" transform="translate(525,100)"/>
<path d="M0 0 C0.33 0.66 0.66 1.32 1 2 C0.06421005 4.35981813 -0.93347808 6.69631264 -2 9 C-2.66 9 -3.32 9 -4 9 C-2.94124926 5.59687262 -1.99097846 2.98646769 0 0 Z " fill="#CD827B" transform="translate(511,94)"/>
<path d="M0 0 C0.33 0.99 0.66 1.98 1 3 C-1.05233685 5.2477975 -2.00667261 6.0022242 -5 7 C-3.70700306 4.11562221 -2.34058637 2.12780579 0 0 Z " fill="#CC7C73" transform="translate(25,61)"/>
<path d="M0 0 C0.66 0.33 1.32 0.66 2 1 C1.34 2.65 0.68 4.3 0 6 C-1.32 6 -2.64 6 -4 6 C-3.01 5.67 -2.02 5.34 -1 5 C-0.67 3.35 -0.34 1.7 0 0 Z " fill="#C7756F" transform="translate(72,48)"/>
<path d="M0 0 C1.9375 0.625 1.9375 0.625 4 2 C4.75 5.125 4.75 5.125 5 8 C2.27573689 5.64722731 1.1858237 3.37503669 0 0 Z " fill="#CE8581" transform="translate(69,38)"/>
</svg>
